<?xml version="1.0" encoding="utf-8"?>
<!-- Generator: Adobe Illustrator 19.0.0, SVG Export Plug-In . SVG Version: 6.00 Build 0)  -->
<svg version="1.1" id="Layer_8" xmlns="http://www.w3.org/2000/svg" xmlns:xlink="http://www.w3.org/1999/xlink" x="0px" y="0px"
	 viewBox="0 0 402.5 348.3" style="enable-background:new 0 0 402.5 348.3;" xml:space="preserve">
<style type="text/css">
	.st0{fill:#006838;}
	.st1{fill:#3C2415;}
	.st2{fill:#F9A142;}
	.st3{fill:url(#SVGID_1_);}
	.st4{fill:url(#SVGID_2_);}
	.st5{fill:url(#SVGID_3_);}
	.st6{fill:#BE1E2D;}
	.st7{fill:url(#SVGID_4_);}
	.st8{fill:url(#SVGID_5_);}
	.st9{fill:url(#SVGID_6_);}
	.st10{fill:#F15A29;}
	.st11{fill:url(#SVGID_7_);}
	.st12{fill:url(#SVGID_8_);}
	.st13{fill:url(#SVGID_9_);}
	.st14{fill:url(#SVGID_10_);}
	.st15{fill:#F47920;}
	.st16{fill:url(#SVGID_11_);}
	.st17{fill:url(#SVGID_12_);}
	.st18{fill:url(#SVGID_13_);}
	.st19{fill:url(#SVGID_14_);}
	.st20{fill:url(#SVGID_15_);}
</style>
<g>
	<path class="st0" d="M50.2,277.8v-2.6c0-0.4,0.1-0.8,0.2-1c0.2-0.3,0.5-0.5,1-0.8c1.3-0.7,2.1-1.5,2.5-2.3c0.3-0.8,0.5-2,0.5-3.6
		v-31.4l-15.5,41.7h-3.8L20,236.1v31.4c0,1.6,0.2,2.8,0.5,3.6c0.3,0.8,1.1,1.5,2.4,2.3c0.5,0.3,0.8,0.5,1,0.8c0.2,0.3,0.3,0.6,0.3,1
		v2.6H9.6v-2.6c0-0.4,0.1-0.8,0.2-1c0.2-0.3,0.5-0.5,1-0.8c1.3-0.7,2.1-1.5,2.5-2.3c0.3-0.8,0.5-2,0.5-3.6v-29.3
		c0-1.6-0.1-2.8-0.4-3.6c-0.3-0.8-1-1.5-2.1-2.3c-0.4-0.2-0.6-0.5-0.8-0.8s-0.2-0.6-0.2-1.1v-2.6H27l11.8,33.6l12.2-33.6h16.6v2.6
		c0,0.5-0.1,0.8-0.2,1.1c-0.1,0.3-0.4,0.5-0.7,0.8c-1.1,0.7-1.8,1.5-2,2.2c-0.3,0.7-0.4,1.9-0.4,3.7v29.3c0,1.6,0.2,2.8,0.5,3.6
		c0.3,0.8,1.1,1.5,2.4,2.3c0.5,0.2,0.8,0.5,1,0.8c0.2,0.3,0.3,0.6,0.3,1.1v2.6H50.2z"/>
	<path class="st0" d="M74.1,258.8c-0.6-1.6-1.2-2.8-1.6-3.4c-0.5-0.6-1.4-1.3-2.7-2.1c-0.3-0.2-0.5-0.4-0.6-0.7
		c-0.1-0.2-0.2-0.5-0.2-0.7V249h16.1v2.9c0,0.6-0.4,1.1-1.2,1.7c-0.8,0.5-1.2,1.2-1.2,2c0,0.4,0,0.7,0.1,1c0,0.3,0.1,0.6,0.2,0.9
		l4.1,12.2l4.5-12.1c0.1-0.3,0.2-0.6,0.3-0.9c0.1-0.3,0.1-0.5,0.1-0.7c0-1-0.5-1.8-1.5-2.4c-1-0.6-1.5-1.2-1.5-1.8V249h12.7v2.9
		c0,0.7-0.5,1.3-1.4,1.8l-0.1,0c-1.1,0.7-2.2,2.3-3.2,4.9l-0.1,0.3l-9.2,23.7c-1.7,4.3-3.5,7.4-5.5,9.4c-2,2-4.3,2.9-6.9,2.9
		c-1.8,0-3.1-0.4-4.1-1.3c-1-0.8-1.5-2-1.5-3.5c0-1.2,0.3-2.2,1-2.9c0.7-0.7,1.5-1.1,2.6-1.1c0.9,0,1.8,0.3,2.9,0.9
		c1,0.6,1.7,0.9,1.9,0.9c0.7,0,1.3-0.5,2-1.5c0.7-1,1.4-2.7,2.2-4.9L74.1,258.8z"/>
	<path class="st0" d="M67,331H27.6v-2.6c0-0.4,0.1-0.8,0.2-1s0.5-0.5,1-0.8c1.3-0.7,2.1-1.5,2.5-2.3c0.3-0.8,0.5-2,0.5-3.6v-29.3
		c0-1.6-0.1-2.8-0.4-3.6c-0.3-0.8-1-1.5-2.1-2.3c-0.4-0.2-0.6-0.5-0.8-0.8c-0.1-0.3-0.2-0.6-0.2-1.1v-2.6h17.4v2.6
		c0,0.4-0.1,0.8-0.2,1.1c-0.1,0.3-0.4,0.5-0.8,0.8c-1.1,0.7-1.8,1.5-2,2.2c-0.3,0.7-0.4,1.9-0.4,3.7v34h10.1c2.5,0,4.4-0.3,5.5-0.8
		c1.1-0.6,2.2-1.6,3.2-3.2c0.2-0.2,0.4-0.6,0.6-1c0.8-1.4,1.7-2.1,2.6-2.1H67V331z"/>
	<path class="st0" d="M82.4,322.9c0,1.3,0.1,2.2,0.4,2.6c0.3,0.5,0.7,0.9,1.5,1.3c0.5,0.3,0.9,0.5,1.1,0.8c0.2,0.2,0.3,0.5,0.3,0.9
		v2.5H69.6v-2.5c0-0.3,0.1-0.6,0.3-0.9c0.2-0.2,0.6-0.5,1.1-0.8c0.7-0.4,1.2-0.8,1.4-1.2c0.2-0.4,0.4-1.3,0.4-2.7v-12.7
		c0-1.3-0.1-2.2-0.4-2.7c-0.2-0.4-0.7-0.8-1.4-1.2c-0.1,0-0.2-0.1-0.3-0.2c-0.7-0.4-1.1-0.9-1.1-1.4v-2.6h12.8V322.9z"/>
	<path class="st0" d="M101.8,322.9c0,1.3,0.1,2.2,0.4,2.6c0.3,0.5,0.7,0.9,1.5,1.3c0.5,0.3,0.9,0.5,1.1,0.8c0.2,0.2,0.3,0.5,0.3,0.9
		v2.5H89v-2.5c0-0.3,0.1-0.6,0.3-0.9c0.2-0.2,0.6-0.5,1.1-0.8c0.7-0.4,1.2-0.8,1.4-1.2c0.2-0.4,0.4-1.3,0.4-2.7V307h-3.4v-3.2
		c0-0.7,0.4-1.2,1.2-1.6c0.5-0.2,0.8-0.3,1.1-0.5c0.7-0.4,1-1.5,1.1-3.2c0-0.1,0-0.2,0-0.2c0.4-5.5,1.7-9.8,4.1-12.7
		c2.4-2.9,5.6-4.4,9.7-4.4c1.9,0,3.3,0.4,4.4,1.3c1,0.9,1.6,2.1,1.6,3.6c0,1.2-0.3,2.1-1,2.8c-0.7,0.7-1.6,1.1-2.8,1.1
		c-1.2,0-2-0.3-2.6-0.8c-0.6-0.6-0.9-1.4-0.9-2.5c0-0.2,0-0.4,0-0.5c0-0.1,0-0.2,0.1-0.4c-1,0-1.8,0.6-2.2,1.6
		c-0.4,1-0.6,2.9-0.6,5.6v9.2h7v4.8h-7V322.9z"/>
	<path class="st0" d="M118.4,315.9c0,3.3,0.8,5.7,2.2,7.5c1.4,1.7,3.4,2.6,6,2.6c1.7,0,3.4-0.4,5-1.2c1.6-0.8,3.3-2,5-3.7l2.4,2.6
		c0.1,0.1,0.2,0.2,0.2,0.4c0.1,0.2,0.1,0.3,0.1,0.5c0,0.3-0.1,0.7-0.4,1.1c-0.3,0.4-0.7,0.9-1.3,1.4c-1.8,1.6-3.8,2.8-5.9,3.6
		c-2.2,0.8-4.5,1.2-6.8,1.2c-4.7,0-8.5-1.4-11.4-4.1c-2.9-2.7-4.4-6.3-4.4-10.8c0-4.7,1.5-8.4,4.5-11.3c3-2.8,7-4.3,11.9-4.3
		c4.4,0,7.8,1.2,10.3,3.5c2.5,2.4,3.7,5.6,3.7,9.8v1.1L118.4,315.9z M119,311h10.6c-0.1-1.7-0.6-3-1.5-3.9c-0.8-0.9-2-1.3-3.5-1.3
		c-1.5,0-2.7,0.5-3.7,1.3S119.3,309.3,119,311z"/>
</g>
<path class="st1" d="M210.3,147.7c6-7.7,10-9.9,16.5-16.5c3.8-3.8,9.9-4.5,11-11c-0.7,4-5.8,4.8-9.1,7.3c-4.4,3.4-8.1,6.8-11.7,10
	c-0.5-6.6,2.6-15.2,1.9-21.2c-0.1-1.2-0.6-2.1-0.9-3.1l-0.5,0.6c0,1.7,0.8,3,0.7,4.9c-0.1,5-2.2,10.9-2.8,16.3
	c-0.1,1.3-0.1,2.5,0.1,3.7c-5.5,4.8-11.3,9.4-19.9,13.2c4.4-14,5.9-30.3,7.3-46.6c1.7-19.3,14.5-31.6,23.7-42.9
	c-3.7,2.4-7.1,5.1-10.1,8.1c0.3-1,1.3-5.5,0.9-8.9c-0.4-3.8-0.2-5.8,0.1-7.5c0.2-1.7,2.1-3.9,2.1-3.9v-1c0,0-2.9,2.1-3.1,6.8
	c-0.2,4.2-1.3,13.1-2.4,17.1c-8.2,9.5-13.4,22.3-15.8,40.4c-3.8,27.9-18.3,52.9-26.5,74.9c-19.9-42.8,13.2-73.7,4.3-123.5
	c-1.9-10.8-5.4-23.1,2.7-34.7c-1.9-2.3-3.1,3.5-4.6,7.3c-4.3,11.3-1.1,24.4-0.9,38.3c0.3,25-7.6,38.4-11.3,58
	c-8-12.3-5-30.6-12.2-45c-0.6-9.9-0.4-31.7-3.7-36.6c-2.1-0.9-10.4-1-12.5-2.8c0,3.7,10.5,1,10.5,4.7c3.5,9.6,2.3,19.6,3,32
	c-6.7-6.8-11.9-22.2-19.2-33.8c-2.7-4.3-7.5-5.6-7.3-11c-0.2,6.3,5.2,11.3,8.2,17.3c4.7,9.5,7.4,20.1,12.8,28.4
	c1.8,2.7,7.8,11.8,6.9,21.6c-0.5,5.3,0.9,12.1,2.6,17.3c1.8,5.6,7,9.5,7.8,14.9c1,6.8-1.4,16.2-0.9,24.6c1.1,19.1,10.3,37.1,0,49.3
	c-7.4-13.5-14.5-27.2-23.5-39.1c-1.2-6.5-4.3-24-3.2-32.3c1.4-10.3-4.2-17.5-4-20.3c0.2-2.8,3.7-4.4,3.7-4.4s-4.2,1.3-4.9,4.4
	c-0.7,3.1,4,15.6,2.3,22c-1,3.9-0.8,14.8-0.5,22.6c-5.6-6.1-11.9-11.6-19.2-15.9c-2-32.6-17.4-42.7-27.3-68.2
	c-3.7-9.6-3.9-14-12.9-19.4c4.5,4.5,7.7,9.5,10,19.4c6.3,26.3,21.7,30.8,23.8,60.9c-23.4-10.4-19.3-31.4-47.4-40.2
	c18.7,6.3,12.9,12.3,24.5,25.6c-11.4-0.5-13.6-10.1-25.6-10c11.5,2.2,15.3,12.1,28.3,12.8c0.9,3.3,8.9,10.8,18.8,20
	c-6.5-0.3-14.1-6.5-20-5.9c-1.2,0.1-2.2,0.9-3.3,1.2l0.5,1c1.7,0.1,3.2-1.1,5-0.8c4.9,0.7,10.3,5.3,15.6,7.1c1.7,0.6,3.3,0.3,4.9,0
	c15.6,14.7,34.7,33.2,38.8,47.6c-18.1-1-33.7-28.1-50.7-30.3v1c17.1,3.5,34.5,34.1,53.4,35.8c4.7,2.9,4.2,11,7.3,15.5
	c3.6,10.3,1.9,43.1-0.2,77.2c0.2-0.2,0.4-0.4,0.7-0.7c1.5-1.3,3.4-2,5.7-2c1.4,0,2.7,0.3,3.7,0.8c0.5,0.2,0.9,0.5,1.3,0.8
	c0.2,0.2,0.4,0.4,0.6,0.6c-2.8-33.4-5-72.6,9.3-98.7c25.2,0,31.9-11.4,55-13.6c1.6-3,4.8-4.3,6.4-7.3c-2.8,1.8-4.6,4.5-7.3,6.4
	c-22.9-0.6-26.3,10.9-50.4,9.1c6.9-12.3,7.3-27,14.6-37.4C196.3,154,205.9,153.5,210.3,147.7z"/>
<path class="st1" d="M174.3,327.4c-0.5,0.2-0.9,0.3-1.5,0.4c-0.5,0.1-1.1,0.1-1.6,0.1c-1,0-2-0.2-2.9-0.5c-0.9-0.4-1.7-0.9-2.5-1.6
	c1.1-1.2,2.1-2.5,3.1-4c0.9-1.5,1.4-2.2,1.5-2.3c0.4-0.4,1.1-0.8,2-1.1c0.3-0.1,0.6-0.2,0.7-0.3c0.3-0.1,0.5-0.3,0.6-0.5
	c0.1-0.2,0.2-0.5,0.2-0.9v-1.2h-10.2h-0.4v1.2c0,0.5,0.2,0.9,0.6,1.2c0.2,0.1,0.3,0.2,0.5,0.3c0.1,0,0.2,0.1,0.2,0.1
	c0.5,0.2,0.8,0.4,1,0.6c0.2,0.2,0.2,0.5,0.2,0.9c0,0.5-0.2,1.1-0.5,1.6c-0.3,0.4-0.7,0.9-1.1,1.4c-0.1,0.2-0.3,0.3-0.4,0.5
	c-1-1.5-1.9-2.9-2.7-4.3c-0.8-1.4-1.5-2.7-2.1-4c1.9-0.7,3.4-1.4,4.5-2.2c0.3-0.2,0.5-0.4,0.7-0.6c1-1,1.6-2.3,1.6-3.8
	c0-1.5-0.4-2.7-1.3-3.7c-0.2-0.2-0.4-0.4-0.6-0.6c-0.4-0.3-0.8-0.6-1.3-0.8c-1-0.5-2.2-0.8-3.7-0.8c-2.3,0-4.2,0.7-5.7,2
	c-0.2,0.2-0.5,0.4-0.7,0.7c-1.1,1.2-1.6,2.6-1.6,4.3c0,0.7,0.1,1.5,0.3,2.4c0.2,0.8,0.5,1.6,0.8,2.5c0,0.1,0.1,0.2,0.1,0.3
	c0,0-0.1,0-0.1,0.1c-0.8,0.3-1.6,0.6-2.2,1c-1.6,0.8-2.8,1.7-3.7,2.7c-1.4,1.5-2,3.3-2,5.3c0,2.4,0.9,4.4,2.6,5.9
	c0.3,0.3,0.7,0.5,1.1,0.8c1.5,1,3.4,1.4,5.6,1.4c1.4,0,2.8-0.2,4.2-0.6c1.4-0.4,2.8-1.1,4.2-1.9c1.1,0.9,2.2,1.5,3.4,1.9
	c1.2,0.4,2.5,0.6,3.9,0.6c0.2,0,0.4,0,0.7,0c0.9,0,1.7-0.2,2.5-0.4c1-0.3,2-0.7,2.9-1.3L174.3,327.4z M157,306.3
	c0.5-0.5,1.1-0.7,1.9-0.7c0.2,0,0.4,0,0.6,0c0.6,0.1,1,0.3,1.4,0.6c0.5,0.5,0.7,1.1,0.7,1.8c0,0.8-0.3,1.6-1,2.4
	c-0.7,0.7-1.7,1.4-3,1.9c-0.5-1-0.8-1.9-1-2.5c-0.2-0.6-0.3-1.2-0.3-1.6C156.3,307.5,156.5,306.8,157,306.3
	C157,306.3,157,306.3,157,306.3z M157.6,327.6c-0.7,0.2-1.4,0.3-2.2,0.3c-1.5,0-2.8-0.5-3.9-1.6c-1.1-1.1-1.6-2.4-1.6-3.9
	c0-1.1,0.3-2,0.9-2.9c0.3-0.3,0.6-0.7,0.9-1c0.5-0.4,1.1-0.9,1.9-1.2c0.1,0.2,0.2,0.3,0.2,0.4c0.9,1.8,1.9,3.5,2.8,4.9
	c1,1.6,1.9,3,2.8,4C158.9,327.1,158.2,327.4,157.6,327.6z"/>
<g>
	<path class="st0" d="M229.4,288.9C229.4,288.9,229.4,289,229.4,288.9c-0.1,0.4-0.3,1-0.5,1.7l-8.8,24.4l-8.8-24.9
		c-0.2-0.6-0.4-1-0.5-1.3c-0.1-0.3-0.1-0.7-0.1-0.9c0-0.9,0.6-1.6,1.8-2.1c0.3-0.1,0.5-0.2,0.6-0.2c0.3-0.2,0.6-0.4,0.8-0.7
		c0.2-0.3,0.3-0.7,0.3-1.2v-2.6h-18.9v2.6c0,0.4,0.1,0.8,0.3,1.1c0.2,0.3,0.4,0.6,0.8,0.8c0.1,0.1,0.3,0.2,0.6,0.3
		c1.7,0.8,3,2.3,3.7,4.6l1.5,4.3l-7.9,20.3l-8.8-24.9c-0.2-0.6-0.4-1-0.5-1.3c-0.1-0.3-0.1-0.7-0.1-0.9c0-0.9,0.6-1.6,1.8-2.1
		c0.3-0.1,0.5-0.2,0.6-0.2c0.3-0.2,0.6-0.4,0.8-0.7c0.2-0.3,0.3-0.7,0.3-1.2v-2.6h-18.9v2.6c0,0.4,0.1,0.8,0.2,1.1
		c0.2,0.3,0.4,0.6,0.8,0.8c0.1,0.1,0.3,0.2,0.6,0.3c1.7,0.8,2.9,2.3,3.7,4.5l14.7,41h4.1l11.3-28.9l10.4,28.9h4.1l14.8-37.6
		c0.3-0.7,0.5-1.3,0.8-1.8C232.8,291.1,230.9,290.1,229.4,288.9z"/>
	<path class="st0" d="M254.5,326.8c-0.7-0.4-1.2-0.8-1.5-1.3c-0.3-0.5-0.4-1.3-0.4-2.6v-20.8h-12.8v2.6c0,0.5,0.4,1,1.1,1.4
		c0.1,0.1,0.2,0.1,0.3,0.2c0.7,0.4,1.2,0.8,1.4,1.2c0.2,0.4,0.4,1.3,0.4,2.7v12.7c0,1.3-0.1,2.2-0.4,2.7c-0.2,0.4-0.7,0.8-1.4,1.2
		c-0.6,0.3-0.9,0.6-1.1,0.8c-0.2,0.2-0.3,0.5-0.3,0.9v2.5h15.9v-2.5c0-0.4-0.1-0.7-0.3-0.9C255.4,327.3,255.1,327.1,254.5,326.8z"/>
	<path class="st0" d="M272.4,312.1c-0.4-0.2-0.9-0.4-1.6-0.6c-2.9-1.1-4.3-2.2-4.3-3.3c0-0.7,0.3-1.3,0.8-1.8
		c0.5-0.5,1.3-0.7,2.2-0.7c0.5,0,0.9,0.1,1.3,0.1c0.4,0.1,0.7,0.2,1.1,0.4c0,0.1,0,0.2,0,0.4c0,0.2,0,0.3,0,0.4
		c0,1.2,0.4,2.1,1.1,2.8c0.7,0.7,1.7,1,3,1c1.3,0,2.3-0.4,3-1.1c0.7-0.7,1.1-1.7,1.1-3c0-1.6-0.8-2.9-2.5-3.9
		c-1.7-1-3.9-1.4-6.8-1.4c-3.5,0-6.3,0.8-8.3,2.5c-2.1,1.7-3.1,3.9-3.1,6.6c0,2,0.6,3.7,1.7,4.9c1.1,1.2,3.7,2.7,7.8,4.3
		c0.2,0.1,0.5,0.2,0.8,0.3c3.4,1.3,5.1,2.7,5.1,4.1c0,0.9-0.4,1.6-1.2,2.1c-0.8,0.5-1.8,0.8-3.1,0.8c-0.5,0-1.1-0.1-1.8-0.2
		c-0.6-0.1-1.3-0.3-2-0.6c0-0.3,0.1-0.6,0.1-0.8c0-0.3,0-0.6,0-1.1c0-1.3-0.4-2.4-1.1-3.1c-0.8-0.7-1.8-1.1-3.2-1.1
		c-1.4,0-2.5,0.4-3.4,1.1c-0.8,0.8-1.2,1.8-1.2,3.1c0,2.4,1,4.3,3.1,5.6c2.1,1.3,5.1,1.9,9.1,1.9c3.7,0,6.6-0.9,8.8-2.7
		c2.2-1.8,3.3-4.1,3.3-7.1c0-2.3-0.6-4.2-1.9-5.5C279.2,315.2,276.5,313.7,272.4,312.1z"/>
	<path class="st0" d="M318,326.8c-0.7-0.4-1.2-0.8-1.5-1.3c-0.3-0.5-0.4-1.3-0.4-2.6v-10.1c0-3.8-0.8-6.6-2.4-8.4
		c-1.6-1.9-4.1-2.8-7.4-2.8c-1.7,0-3.4,0.3-5.1,0.9c-1.7,0.6-3.4,1.6-5.1,2.8v-24.2h-12.8v2.5c0,0.6,0.4,1.2,1.3,1.7
		c0.7,0.4,1.2,0.8,1.5,1.3c0.3,0.4,0.4,1.3,0.4,2.5v33.9c0,1.3-0.1,2.2-0.4,2.6c-0.3,0.5-0.7,0.9-1.5,1.3c-0.5,0.3-0.9,0.5-1,0.8
		c-0.2,0.2-0.3,0.5-0.3,0.9v2.5h15.9v-2.5c0-0.3-0.1-0.6-0.3-0.9c-0.2-0.2-0.6-0.5-1.1-0.8c-0.7-0.4-1.1-0.8-1.4-1.2
		c-0.3-0.4-0.4-1.3-0.4-2.7v-12.6c0.9-0.9,1.8-1.5,2.7-2c1-0.4,2-0.7,3-0.7c1.7,0,2.9,0.5,3.6,1.4c0.7,0.9,1,2.5,1,4.8v9
		c0,1.3-0.1,2.2-0.4,2.7c-0.2,0.4-0.7,0.8-1.4,1.2c-0.6,0.3-0.9,0.6-1.1,0.8c-0.2,0.2-0.3,0.5-0.3,0.9v2.5h15.9v-2.5
		c0-0.4-0.1-0.7-0.3-0.9C318.9,327.3,318.6,327.1,318,326.8z"/>
	<path class="st0" d="M335.3,301.4c-5,0-8.9,1.4-11.9,4.3c-3,2.8-4.5,6.6-4.5,11.3c0,4.4,1.5,8,4.4,10.8c2.9,2.7,6.7,4.1,11.4,4.1
		c2.4,0,4.6-0.4,6.8-1.2c2.2-0.8,4.2-2,5.9-3.6c0.6-0.5,1-1,1.3-1.4c0.3-0.4,0.4-0.8,0.4-1.1c0-0.2,0-0.3-0.1-0.5
		c-0.1-0.2-0.1-0.3-0.2-0.4l-2.4-2.6c-1.7,1.7-3.4,2.9-5,3.7c-1.6,0.8-3.3,1.2-5,1.2c-2.6,0-4.6-0.9-6-2.6c-1.4-1.7-2.1-4.2-2.2-7.5
		l21,0v-1.1c0-4.2-1.2-7.4-3.7-9.8C343.1,302.6,339.7,301.4,335.3,301.4z M328.9,311c0.3-1.7,1-3,2-3.9c1-0.9,2.2-1.3,3.7-1.3
		c1.5,0,2.7,0.4,3.5,1.3c0.8,0.9,1.3,2.2,1.5,3.9H328.9z"/>
	<path class="st0" d="M367.8,312.1c-0.4-0.2-0.9-0.4-1.6-0.6c-2.9-1.1-4.3-2.2-4.3-3.3c0-0.7,0.3-1.3,0.8-1.8
		c0.6-0.5,1.3-0.7,2.2-0.7c0.5,0,0.9,0.1,1.3,0.1c0.4,0.1,0.7,0.2,1.1,0.4c0,0.1,0,0.2,0,0.4c0,0.2,0,0.3,0,0.4
		c0,1.2,0.4,2.1,1.1,2.8s1.7,1,3.1,1c1.3,0,2.3-0.4,3-1.1c0.7-0.7,1.1-1.7,1.1-3c0-1.6-0.8-2.9-2.5-3.9c-1.7-1-3.9-1.4-6.8-1.4
		c-3.5,0-6.3,0.8-8.3,2.5c-2.1,1.7-3.1,3.9-3.1,6.6c0,2,0.6,3.7,1.7,4.9c1.1,1.2,3.7,2.7,7.8,4.3c0.2,0.1,0.5,0.2,0.8,0.3
		c3.4,1.3,5.1,2.7,5.1,4.1c0,0.9-0.4,1.6-1.2,2.1c-0.8,0.5-1.8,0.8-3.1,0.8c-0.5,0-1.1-0.1-1.8-0.2c-0.6-0.1-1.3-0.3-2-0.6
		c0-0.3,0.1-0.6,0.1-0.8c0-0.3,0-0.6,0-1.1c0-1.3-0.4-2.4-1.1-3.1c-0.8-0.7-1.8-1.1-3.2-1.1c-1.4,0-2.5,0.4-3.4,1.1
		c-0.8,0.8-1.2,1.8-1.2,3.1c0,2.4,1,4.3,3.1,5.6c2.1,1.3,5.1,1.9,9.1,1.9c3.7,0,6.6-0.9,8.8-2.7c2.2-1.8,3.3-4.1,3.3-7.1
		c0-2.3-0.6-4.2-1.9-5.5C374.6,315.2,371.9,313.7,367.8,312.1z"/>
	<path class="st0" d="M392.1,291.3h-2l-1.2,3.5c-0.2,0.5-0.3,1.1-0.5,1.8h0c-0.2-0.7-0.3-1.3-0.5-1.8l-1.2-3.5h-2.1l-0.5,7.1h1.4
		l0.3-4.2c0-0.7,0.1-1.3,0.1-2h0.1c0.2,0.6,0.4,1.5,0.5,2l1.3,4.1h1.5l1.3-4c0.2-0.7,0.4-1.5,0.6-2.1h0.1c0,0.8,0,1.4,0.1,2l0.3,4.2
		h1.4L392.1,291.3z"/>
	<polygon class="st0" points="377.6,292.5 379.8,292.5 379.8,298.5 381.2,298.5 381.2,292.5 383.5,292.5 383.5,291.3 377.6,291.3 	
		"/>
	<path class="st2" d="M237.4,273.7c-4.6-0.6-8.2,0.4-10.4,2.8c1.3,1.6,3.1,3.2,5.3,4.7c1.7,1.1,3.7,2.1,5.9,2.8
		c0.6,0.2,1.4,0.4,2.1,0.6c0.9,0.3,1.9,0.5,3,0.8c3,0.8,6.2,1.3,8.2,1.1c-2.3,0.4-5.5,0.4-8.7,0c-1.3-0.2-2.5-0.4-3.7-0.6
		c-1-0.2-2-0.5-2.9-0.7c-2.8-0.9-5.6-2.4-7.8-4c-1.1-0.8-2.1-1.6-2.9-2.4c0,0-2.7-2.4-3.9-4c-1.4-1.8-2.6-3.6-3.5-5.3
		c-0.8-1.7-2.5-0.3-1.6,1.4c0.9,1.7,2.1,3.4,3.4,5.1c1.6,2,3.3,3.6,5.1,4.9c-0.3,2.7,1.3,5.7,4.4,8.1c1.5,1.2,3.4,2.2,5.5,3
		c1.8,0.7,3.8,1.2,6.1,1.5c9.6,1.2,16.4-2.8,23.8-8C249.8,285.1,247,274.9,237.4,273.7z"/>
</g>
<g>
	<linearGradient id="SVGID_1_" gradientUnits="userSpaceOnUse" x1="160.9645" y1="154.9064" x2="201.5767" y2="154.9064">
		<stop  offset="0" style="stop-color:#BE1E2D"/>
		<stop  offset="5.368236e-02" style="stop-color:#C63A30"/>
		<stop  offset="0.1513" style="stop-color:#D35C35"/>
		<stop  offset="0.2535" style="stop-color:#DE7439"/>
		<stop  offset="0.3602" style="stop-color:#E8873D"/>
		<stop  offset="0.4731" style="stop-color:#F09540"/>
		<stop  offset="0.5964" style="stop-color:#F79E41"/>
		<stop  offset="0.75" style="stop-color:#F9A142"/>
	</linearGradient>
	<path class="st3" d="M174.2,145c-4.6-0.6-8.2,0.4-10.4,2.8c0.3,0.4,0.3-0.4,0,0c-0.4,0.6-3.2,2.6-2.7,5.5c0.4,2.5,3.7,5.9,5.1,7
		c1.5,1.2,3.4,2.2,5.5,3c1.8,0.7,3.8,1.2,6.1,1.5c9.6,1.2,16.4-2.8,23.8-8C186.6,156.4,183.8,146.2,174.2,145z"/>
	<path class="st0" d="M177.9,119.3c-4.4,1.2-7.4,3.5-8.6,6.5c0.5,0.2,0.1-0.5,0,0c-0.2,0.7-1.9,3.6-0.4,6.1c1.3,2.2,5.7,4,7.4,4.5
		c1.8,0.5,3.9,0.7,6.2,0.7c1.9-0.1,4-0.4,6.2-1c9.3-2.6,14.1-8.9,19-16.5C193.7,125.1,187.2,116.7,177.9,119.3z"/>
	<linearGradient id="SVGID_2_" gradientUnits="userSpaceOnUse" x1="142.6517" y1="107.8229" x2="161.0876" y2="107.8229">
		<stop  offset="0" style="stop-color:#BE1E2D"/>
		<stop  offset="5.368236e-02" style="stop-color:#C63A30"/>
		<stop  offset="0.1513" style="stop-color:#D35C35"/>
		<stop  offset="0.2535" style="stop-color:#DE7439"/>
		<stop  offset="0.3602" style="stop-color:#E8873D"/>
		<stop  offset="0.4731" style="stop-color:#F09540"/>
		<stop  offset="0.5964" style="stop-color:#F79E41"/>
		<stop  offset="0.75" style="stop-color:#F9A142"/>
	</linearGradient>
	<path class="st4" d="M142.8,117.2c0.7,4.6,2.7,7.8,5.5,9.2c0.3-0.4-0.4-0.2,0,0c0.7,0.2,3.3,2.3,6,1.1c2.3-1,4.6-5.2,5.3-6.9
		c0.7-1.8,1.2-3.8,1.3-6.1c0.1-1.9,0.1-4-0.3-6.2c-1.5-9.6-7.3-15-14.3-20.7C150.3,102.2,141.3,107.7,142.8,117.2z"/>
	<linearGradient id="SVGID_3_" gradientUnits="userSpaceOnUse" x1="104.1011" y1="136.2036" x2="143.9761" y2="136.2036">
		<stop  offset="0" style="stop-color:#BE1E2D"/>
		<stop  offset="5.368236e-02" style="stop-color:#C63A30"/>
		<stop  offset="0.1513" style="stop-color:#D35C35"/>
		<stop  offset="0.2535" style="stop-color:#DE7439"/>
		<stop  offset="0.3602" style="stop-color:#E8873D"/>
		<stop  offset="0.4731" style="stop-color:#F09540"/>
		<stop  offset="0.5964" style="stop-color:#F79E41"/>
		<stop  offset="0.75" style="stop-color:#F9A142"/>
	</linearGradient>
	<path class="st5" d="M129.9,146.3c4.5,1.1,8.2,0.6,10.7-1.5c-0.3-0.4-0.3,0.3,0,0c0.5-0.6,3.4-2.2,3.4-5.1c-0.1-2.5-3-6.3-4.3-7.6
		c-1.4-1.3-3.1-2.6-5.1-3.6c-1.7-0.9-3.7-1.6-5.9-2.2c-9.4-2.3-16.6,0.9-24.6,5.1C119,133.5,120.5,144,129.9,146.3z"/>
	<path class="st6" d="M143.4,168.3c4.2-1.8,6.9-4.6,7.5-7.7c-0.5-0.2,0,0.5,0,0c0.1-0.8,1.4-3.8-0.4-6.1c-1.6-1.9-6.2-3.2-8-3.4
		c-1.9-0.2-4-0.2-6.3,0.2c-1.9,0.4-3.9,0.9-6,1.8c-8.9,3.9-12.7,10.8-16.4,19.1C126.9,164.9,134.5,172.2,143.4,168.3z"/>
	<path class="st0" d="M116.4,116.4c3.3,3.2,6.9,4.6,10,4c0-0.5-0.4,0.1,0,0c0.7-0.2,4.1-0.2,5.5-2.7c1.2-2.2,0.5-6.9,0.1-8.7
		c-0.5-1.8-1.4-3.8-2.6-5.7c-1.1-1.6-2.4-3.2-4-4.8c-7-6.7-14.9-7.5-23.9-7.8C113.2,99.8,109.4,109.7,116.4,116.4z"/>
	<linearGradient id="SVGID_4_" gradientUnits="userSpaceOnUse" x1="78.8135" y1="152.4389" x2="119.6353" y2="152.4389">
		<stop  offset="0" style="stop-color:#BE1E2D"/>
		<stop  offset="5.368236e-02" style="stop-color:#C63A30"/>
		<stop  offset="0.1513" style="stop-color:#D35C35"/>
		<stop  offset="0.2535" style="stop-color:#DE7439"/>
		<stop  offset="0.3602" style="stop-color:#E8873D"/>
		<stop  offset="0.4731" style="stop-color:#F09540"/>
		<stop  offset="0.5964" style="stop-color:#F79E41"/>
		<stop  offset="0.75" style="stop-color:#F9A142"/>
	</linearGradient>
	<path class="st7" d="M107.5,161.9c4.6-0.1,8.1-1.5,10-4.1c-0.4-0.3-0.2,0.4,0,0c0.3-0.7,2.8-3,2-5.8c-0.7-2.4-4.5-5.3-6-6.2
		c-1.6-1-3.6-1.7-5.9-2.2c-1.9-0.4-4-0.7-6.2-0.6c-9.7,0.1-15.9,5-22.6,11.2C93.7,152.3,97.9,162.1,107.5,161.9z"/>
	<linearGradient id="SVGID_5_" gradientUnits="userSpaceOnUse" x1="168.9846" y1="84.1647" x2="193.557" y2="84.1647">
		<stop  offset="0" style="stop-color:#BE1E2D"/>
		<stop  offset="5.368236e-02" style="stop-color:#C63A30"/>
		<stop  offset="0.1513" style="stop-color:#D35C35"/>
		<stop  offset="0.2535" style="stop-color:#DE7439"/>
		<stop  offset="0.3602" style="stop-color:#E8873D"/>
		<stop  offset="0.4731" style="stop-color:#F09540"/>
		<stop  offset="0.5964" style="stop-color:#F79E41"/>
		<stop  offset="0.75" style="stop-color:#F9A142"/>
	</linearGradient>
	<path class="st8" d="M170.9,87.3c-2.1,4.1-2.5,7.9-1.1,10.7c0.5-0.2-0.3-0.4,0,0c0.4,0.6,1.3,3.9,4.1,4.5c2.4,0.5,6.8-1.4,8.4-2.3
		c1.6-1,3.2-2.4,4.8-4.1c1.3-1.5,2.5-3.2,3.5-5.2c4.5-8.6,3.1-16.4,0.9-25.1C185.9,79.7,175.4,78.7,170.9,87.3z"/>
	<path class="st6" d="M211.7,134.1c-4.5,1-7.6,3.2-8.9,6.1c0.4,0.3,0.1-0.4,0,0c-0.2,0.7-2.1,3.5-0.7,6.1c1.2,2.2,5.5,4.3,7.2,4.9
		c1.8,0.6,3.9,0.9,6.2,1c1.9,0,4-0.2,6.2-0.7c9.4-2.1,14.5-8.2,19.7-15.6C227.2,140.6,221.1,132,211.7,134.1z"/>
	<linearGradient id="SVGID_6_" gradientUnits="userSpaceOnUse" x1="183.851" y1="185.1382" x2="220.4478" y2="185.1382">
		<stop  offset="0" style="stop-color:#BE1E2D"/>
		<stop  offset="5.368236e-02" style="stop-color:#C63A30"/>
		<stop  offset="0.1513" style="stop-color:#D35C35"/>
		<stop  offset="0.2535" style="stop-color:#DE7439"/>
		<stop  offset="0.3602" style="stop-color:#E8873D"/>
		<stop  offset="0.4731" style="stop-color:#F09540"/>
		<stop  offset="0.5964" style="stop-color:#F79E41"/>
		<stop  offset="0.75" style="stop-color:#F9A142"/>
	</linearGradient>
	<path class="st9" d="M199.2,174.8c-4-2.2-7.8-2.6-10.7-1.3c0.2,0.5,0.4-0.3,0,0c-0.6,0.4-3.9,1.2-4.5,4.1c-0.6,2.4,1.3,6.8,2.2,8.4
		c1,1.6,2.3,3.3,4,4.8c1.4,1.3,3.1,2.5,5.1,3.6c8.5,4.6,16.3,3.4,25.1,1.3C206.6,189.9,207.7,179.4,199.2,174.8z"/>
	<path class="st10" d="M154.2,196.8c3,3.5,6.3,5.3,9.5,5.1c0-0.5-0.5,0.1,0,0c0.7-0.2,4.1,0.3,5.7-2.1c1.4-2.1,1.3-6.8,1-8.6
		c-0.3-1.9-1-3.9-2-6c-0.9-1.7-2-3.5-3.5-5.2c-6.2-7.4-14-9.1-22.9-10.3C152.9,180.1,148,189.4,154.2,196.8z"/>
	<linearGradient id="SVGID_7_" gradientUnits="userSpaceOnUse" x1="105.8106" y1="192.2762" x2="142.2667" y2="192.2762">
		<stop  offset="0" style="stop-color:#BE1E2D"/>
		<stop  offset="5.368236e-02" style="stop-color:#C63A30"/>
		<stop  offset="0.1513" style="stop-color:#D35C35"/>
		<stop  offset="0.2535" style="stop-color:#DE7439"/>
		<stop  offset="0.3602" style="stop-color:#E8873D"/>
		<stop  offset="0.4731" style="stop-color:#F09540"/>
		<stop  offset="0.5964" style="stop-color:#F79E41"/>
		<stop  offset="0.75" style="stop-color:#F9A142"/>
	</linearGradient>
	<path class="st11" d="M135,197.8c4.1-2.1,6.5-5,7-8.2c-0.5-0.1,0,0.5,0,0c0-0.8,1.1-3.9-0.9-6c-1.7-1.8-6.4-2.7-8.2-2.8
		c-1.9-0.1-4,0.1-6.2,0.7c-1.9,0.5-3.8,1.2-5.8,2.3c-8.6,4.5-11.9,11.7-15,20.2C118.3,195.5,126.4,202.3,135,197.8z"/>
	<linearGradient id="SVGID_8_" gradientUnits="userSpaceOnUse" x1="69.5147" y1="180.6878" x2="108.1215" y2="180.6878">
		<stop  offset="0" style="stop-color:#BE1E2D"/>
		<stop  offset="5.368236e-02" style="stop-color:#C63A30"/>
		<stop  offset="0.1513" style="stop-color:#D35C35"/>
		<stop  offset="0.2535" style="stop-color:#DE7439"/>
		<stop  offset="0.3602" style="stop-color:#E8873D"/>
		<stop  offset="0.4731" style="stop-color:#F09540"/>
		<stop  offset="0.5964" style="stop-color:#F79E41"/>
		<stop  offset="0.75" style="stop-color:#F9A142"/>
	</linearGradient>
	<path class="st12" d="M99.2,188.6c4.3-1.5,7.2-4,8.1-7.1c-0.5-0.2-0.1,0.5,0,0c0.1-0.7,1.7-3.7,0-6.1c-1.4-2.1-5.9-3.6-7.7-4
		c-1.9-0.4-4-0.5-6.3-0.2c-1.9,0.2-4,0.7-6.1,1.4c-9.1,3.2-13.4,9.9-17.8,17.8C83.1,183.9,90.1,191.8,99.2,188.6z"/>
	<path class="st0" d="M66.5,171.5c4.6,0.5,8.2-0.5,10.4-2.9c-0.3-0.4-0.3,0.4,0,0c0.4-0.6,3.1-2.6,2.6-5.5c-0.4-2.5-3.8-5.8-5.2-6.9
		c-1.5-1.2-3.4-2.1-5.6-2.9c-1.8-0.6-3.9-1.1-6.1-1.4c-9.6-1-16.4,3.1-23.7,8.4C53.9,160.3,56.9,170.4,66.5,171.5z"/>
	<linearGradient id="SVGID_9_" gradientUnits="userSpaceOnUse" x1="36.0147" y1="127.9718" x2="72.2838" y2="127.9718">
		<stop  offset="0" style="stop-color:#BE1E2D"/>
		<stop  offset="5.368236e-02" style="stop-color:#C63A30"/>
		<stop  offset="0.1513" style="stop-color:#D35C35"/>
		<stop  offset="0.2535" style="stop-color:#DE7439"/>
		<stop  offset="0.3602" style="stop-color:#E8873D"/>
		<stop  offset="0.4731" style="stop-color:#F09540"/>
		<stop  offset="0.5964" style="stop-color:#F79E41"/>
		<stop  offset="0.75" style="stop-color:#F9A142"/>
	</linearGradient>
	<path class="st13" d="M56.9,138.3c4,2.3,7.8,2.8,10.7,1.5c-0.2-0.5-0.4,0.3,0,0c0.6-0.4,3.9-1.2,4.6-4c0.6-2.4-1.2-6.9-2.1-8.4
		c-0.9-1.7-2.3-3.3-3.9-4.9c-1.4-1.3-3.1-2.6-5-3.7c-8.4-4.8-16.2-3.7-25.1-1.7C49.8,123.1,48.4,133.6,56.9,138.3z"/>
	<path class="st6" d="M78.2,83.2c3.1,3.4,6.6,5,9.8,4.6c0-0.5-0.4,0.1,0,0c0.7-0.2,4.1,0.1,5.6-2.4c1.3-2.1,0.9-6.9,0.6-8.7
		c-0.4-1.9-1.2-3.8-2.3-5.8c-1-1.7-2.2-3.4-3.7-5c-6.6-7.1-14.4-8.4-23.4-9.2C76,66.5,71.6,76.1,78.2,83.2z"/>
	
		<linearGradient id="SVGID_10_" gradientUnits="userSpaceOnUse" x1="91.2042" y1="67.2711" x2="119.0067" y2="67.2711" gradientTransform="matrix(0.8608 -0.5089 0.5089 0.8608 -6.6765 60.4336)">
		<stop  offset="0" style="stop-color:#BE1E2D"/>
		<stop  offset="5.368236e-02" style="stop-color:#C63A30"/>
		<stop  offset="0.1513" style="stop-color:#D35C35"/>
		<stop  offset="0.2535" style="stop-color:#DE7439"/>
		<stop  offset="0.3602" style="stop-color:#E8873D"/>
		<stop  offset="0.4731" style="stop-color:#F09540"/>
		<stop  offset="0.5964" style="stop-color:#F79E41"/>
		<stop  offset="0.75" style="stop-color:#F9A142"/>
	</linearGradient>
	<path class="st14" d="M121.4,75.7c4.3,1.7,8.1,1.6,10.8-0.1c-0.2-0.5-0.4,0.3,0,0c0.6-0.5,3.7-1.7,4-4.6c0.3-2.5-2.2-6.6-3.3-8
		c-1.2-1.5-2.7-3-4.6-4.3c-1.6-1.1-3.4-2.1-5.5-2.9c-9-3.5-16.6-1.3-25.1,2C112.2,61.7,112.4,72.2,121.4,75.7z"/>
	<path class="st15" d="M152.3,62.8c-1.3,4.4-0.9,8.2,1,10.7c0.4-0.3-0.3-0.3,0,0c0.5,0.5,2,3.5,5,3.6c2.5,0,6.4-2.7,7.7-3.9
		c1.4-1.3,2.7-3,3.8-5c0.9-1.7,1.8-3.6,2.4-5.8c2.7-9.3-0.2-16.7-4.1-24.8C165.5,52.4,155,53.5,152.3,62.8z"/>
	<linearGradient id="SVGID_11_" gradientUnits="userSpaceOnUse" x1="201.2198" y1="89.7334" x2="227.4167" y2="89.7334">
		<stop  offset="0" style="stop-color:#BE1E2D"/>
		<stop  offset="5.368236e-02" style="stop-color:#C63A30"/>
		<stop  offset="0.1513" style="stop-color:#D35C35"/>
		<stop  offset="0.2535" style="stop-color:#DE7439"/>
		<stop  offset="0.3602" style="stop-color:#E8873D"/>
		<stop  offset="0.4731" style="stop-color:#F09540"/>
		<stop  offset="0.5964" style="stop-color:#F79E41"/>
		<stop  offset="0.75" style="stop-color:#F9A142"/>
	</linearGradient>
	<path class="st16" d="M203.9,91.6c-2.5,3.8-3.3,7.6-2.2,10.6c0.5-0.1-0.2-0.4,0,0c0.4,0.7,0.9,4,3.7,4.9c2.4,0.8,6.9-0.7,8.6-1.5
		c1.7-0.8,3.5-2,5.1-3.6c1.4-1.3,2.8-2.9,4-4.8c5.3-8.1,4.7-16,3.4-24.9C219.6,85.5,209.2,83.5,203.9,91.6z"/>
	<linearGradient id="SVGID_12_" gradientUnits="userSpaceOnUse" x1="226.2825" y1="107.2552" x2="260.3257" y2="107.2552">
		<stop  offset="0" style="stop-color:#BE1E2D"/>
		<stop  offset="5.368236e-02" style="stop-color:#C63A30"/>
		<stop  offset="0.1513" style="stop-color:#D35C35"/>
		<stop  offset="0.2535" style="stop-color:#DE7439"/>
		<stop  offset="0.3602" style="stop-color:#E8873D"/>
		<stop  offset="0.4731" style="stop-color:#F09540"/>
		<stop  offset="0.5964" style="stop-color:#F79E41"/>
		<stop  offset="0.75" style="stop-color:#F9A142"/>
	</linearGradient>
	<path class="st17" d="M232.2,103.8c-3.8,2.6-5.8,5.8-5.9,9c0.5,0.1-0.1-0.5,0,0c0.1,0.7-0.6,4,1.6,5.9c1.9,1.6,6.7,1.9,8.5,1.7
		c1.9-0.1,4-0.6,6.1-1.5c1.8-0.7,3.6-1.7,5.5-3c7.9-5.6,10.3-13.1,12.3-22C249,103.9,240.1,98.2,232.2,103.8z"/>
	<linearGradient id="SVGID_13_" gradientUnits="userSpaceOnUse" x1="217.9235" y1="180.6876" x2="257.7495" y2="180.6876">
		<stop  offset="0" style="stop-color:#BE1E2D"/>
		<stop  offset="5.368236e-02" style="stop-color:#C63A30"/>
		<stop  offset="0.1513" style="stop-color:#D35C35"/>
		<stop  offset="0.2535" style="stop-color:#DE7439"/>
		<stop  offset="0.3602" style="stop-color:#E8873D"/>
		<stop  offset="0.4731" style="stop-color:#F09540"/>
		<stop  offset="0.5964" style="stop-color:#F79E41"/>
		<stop  offset="0.75" style="stop-color:#F9A142"/>
	</linearGradient>
	<path class="st18" d="M228,171.9c-4.5,1-7.6,3.2-8.9,6.1c0.4,0.3,0.1-0.4,0,0c-0.2,0.7-2.1,3.5-0.7,6.1c1.2,2.2,5.5,4.3,7.2,4.8
		c1.8,0.6,3.9,0.9,6.2,1c1.9,0,4-0.2,6.2-0.7c9.4-2.1,14.5-8.2,19.7-15.6C243.5,178.4,237.4,169.7,228,171.9z"/>
	<path class="st0" d="M204,56.8c-2.3,4-2.7,7.8-1.4,10.7c0.5-0.2-0.3-0.4,0,0c0.4,0.6,1.2,3.9,4,4.6c2.4,0.6,6.9-1.2,8.4-2.1
		c1.7-0.9,3.3-2.3,4.9-4c1.3-1.4,2.5-3.1,3.6-5.1c4.7-8.4,3.6-16.3,1.6-25.1C219.2,49.6,208.7,48.4,204,56.8z"/>
	<path class="st6" d="M175.2,40.1c1.2,4.4,3.6,7.4,6.6,8.5c0.2-0.5-0.5-0.1,0,0c0.7,0.2,3.6,1.9,6.1,0.4c2.1-1.3,4-5.7,4.5-7.5
		c0.5-1.8,0.7-3.9,0.6-6.3c-0.1-1.9-0.4-4-1-6.2c-2.6-9.3-9-14-16.7-18.9C180.9,24.2,172.6,30.8,175.2,40.1z"/>
	<linearGradient id="SVGID_14_" gradientUnits="userSpaceOnUse" x1="126.4595" y1="35.8206" x2="152.2251" y2="35.8206">
		<stop  offset="0" style="stop-color:#BE1E2D"/>
		<stop  offset="5.368236e-02" style="stop-color:#C63A30"/>
		<stop  offset="0.1513" style="stop-color:#D35C35"/>
		<stop  offset="0.2535" style="stop-color:#DE7439"/>
		<stop  offset="0.3602" style="stop-color:#E8873D"/>
		<stop  offset="0.4731" style="stop-color:#F09540"/>
		<stop  offset="0.5964" style="stop-color:#F79E41"/>
		<stop  offset="0.75" style="stop-color:#F9A142"/>
	</linearGradient>
	<path class="st19" d="M135.4,46.9c2.5,3.8,5.7,6,8.9,6.1c0.1-0.5-0.5,0,0,0c0.8-0.1,4,0.7,5.9-1.5c1.6-1.9,2.1-6.6,2-8.5
		c-0.1-1.9-0.5-4-1.3-6.1c-0.7-1.8-1.6-3.7-2.8-5.6c-5.3-8.1-12.8-10.6-21.6-12.9C136,30.1,130.1,38.9,135.4,46.9z"/>
	<path class="st15" d="M241.2,147.1c-3.8,2.5-6,5.7-6.1,8.9c0.5,0.1,0-0.5,0,0c0.1,0.8-0.7,4,1.5,5.9c1.9,1.6,6.6,2.1,8.5,2
		c1.9-0.1,4-0.5,6.1-1.3c1.8-0.7,3.7-1.6,5.6-2.8c8.1-5.3,10.6-12.8,12.9-21.6C258,147.7,249.2,141.7,241.2,147.1z"/>
	<linearGradient id="SVGID_15_" gradientUnits="userSpaceOnUse" x1="42.1133" y1="100.647" x2="76.4221" y2="100.647">
		<stop  offset="0" style="stop-color:#BE1E2D"/>
		<stop  offset="5.368236e-02" style="stop-color:#C63A30"/>
		<stop  offset="0.1513" style="stop-color:#D35C35"/>
		<stop  offset="0.2535" style="stop-color:#DE7439"/>
		<stop  offset="0.3602" style="stop-color:#E8873D"/>
		<stop  offset="0.4731" style="stop-color:#F09540"/>
		<stop  offset="0.5964" style="stop-color:#F79E41"/>
		<stop  offset="0.75" style="stop-color:#F9A142"/>
	</linearGradient>
	<path class="st20" d="M60.7,111.1c3.7,2.7,7.4,3.6,10.5,2.6c-0.1-0.5-0.4,0.2,0,0c0.7-0.3,4-0.8,5-3.5c0.9-2.3-0.5-6.9-1.2-8.6
		c-0.8-1.7-1.9-3.5-3.4-5.3c-1.3-1.5-2.8-2.9-4.6-4.2c-7.9-5.6-15.8-5.3-24.8-4.3C55.2,95.2,52.8,105.5,60.7,111.1z"/>
	<path class="st15" d="M86.1,121.1c-0.1,4.6,1.2,8.2,3.8,10.1c0.4-0.4-0.4-0.2,0,0c0.7,0.4,2.9,2.9,5.7,2.2c2.4-0.6,5.5-4.3,6.5-5.8
		c1-1.6,1.9-3.6,2.4-5.8c0.5-1.9,0.8-3.9,0.8-6.2c0.2-9.7-4.5-16.1-10.4-22.9C96.2,107.6,86.3,111.4,86.1,121.1z"/>
</g>
</svg>
