<?xml version="1.0" encoding="utf-8"?>
<!-- Generator: Adobe Illustrator 17.1.0, SVG Export Plug-In . SVG Version: 6.00 Build 0)  -->
<!DOCTYPE svg PUBLIC "-//W3C//DTD SVG 1.1//EN" "http://www.w3.org/Graphics/SVG/1.1/DTD/svg11.dtd">
<svg version="1.1" id="My_Life__x26__Wishes" xmlns="http://www.w3.org/2000/svg" xmlns:xlink="http://www.w3.org/1999/xlink"
	 x="0px" y="0px" viewBox="0 0 612 190" enable-background="new 0 0 612 190" xml:space="preserve">
<g>
	<path fill-rule="evenodd" clip-rule="evenodd" fill="#3C2415" d="M42.8,74.9c-5.7-0.3-7.4-4.6-12.4-5.6c5.2,0,6.2,4.2,11.2,4.4
		c-5.1-5.8-2.6-8.5-10.7-11.2c12.3,3.9,10.5,13,20.7,17.6c-0.9-13.2-7.7-15.2-10.4-26.7c-1-4.4-2.4-6.5-4.4-8.5
		c3.9,2.4,4,4.3,5.6,8.5c4.4,11.2,11.1,15.6,12,29.9c3.2,1.9,6,4.3,8.4,7c-0.1-3.4-0.2-8.2,0.2-9.9c0.7-2.8-1.3-8.3-1-9.6
		c0.3-1.3,2.1-1.9,2.1-1.9s-1.6,0.7-1.6,1.9c-0.1,1.2,2.3,4.4,1.7,8.9c-0.5,3.6,0.9,11.3,1.4,14.2c3.9,5.2,7.1,11.2,10.3,17.1
		c4.5-5.3,0.5-13.2,0-21.6c-0.2-3.7,0.8-7.8,0.4-10.8c-0.3-2.4-2.6-4-3.4-6.5c-0.7-2.3-1.4-5.3-1.1-7.6c0.4-4.3-2.2-8.3-3-9.5
		c-2.4-3.6-3.6-8.3-5.6-12.4c-1.3-2.7-3.7-4.8-3.6-7.6c-0.1,2.3,2,2.9,3.2,4.8c3.2,5.1,5.5,11.8,8.4,14.8c-0.3-5.4,0.2-9.8-1.3-14
		c0-1.6-4.6-0.5-4.6-2.1c0.9,0.8,4.5,0.8,5.5,1.2c1.4,2.2,1.4,11.7,1.6,16c3.1,6.3,1.8,14.3,5.3,19.7c1.6-8.6,5.1-14.5,4.9-25.4
		c-0.1-6.1-1.5-11.8,0.4-16.8c0.6-1.7,1.2-4.2,2-3.2c-3.6,5.1-2,10.5-1.2,15.2C87.8,67,73.3,80.5,82,99.3
		c3.6-9.6,9.9-20.6,11.6-32.8c1.1-7.9,3.3-13.5,6.9-17.7c0.5-1.7,1-5.6,1.1-7.5c0.1-2,1.4-3,1.4-3v0.4c0,0-0.8,1-0.9,1.7
		c-0.1,0.7-0.2,1.6,0,3.3c0.2,1.5-0.3,3.4-0.4,3.9c1.3-1.3,2.8-2.5,4.4-3.5c-4,5-9.7,10.3-10.4,18.8C95,70,94.3,77.1,92.4,83.3
		c3.8-1.7,6.3-3.7,8.7-5.8c-0.1-0.5-0.1-1-0.1-1.6c0.3-2.4,1.2-5,1.2-7.2c0-0.8-0.3-1.4-0.3-2.1l0.2-0.3c0.1,0.4,0.3,0.9,0.4,1.4
		c0.3,2.6-1,6.4-0.8,9.3c1.6-1.4,3.2-2.9,5.1-4.4c1.5-1.1,3.7-1.4,4-3.2c-0.5,2.8-3.1,3.1-4.8,4.8c-2.9,2.9-4.6,3.9-7.2,7.2
		c-2,2.5-6.1,2.8-8,5.5c-3.2,4.6-3.4,11-6.4,16.4c10.5,0.8,12.1-4.2,22.1-4c1.2-0.8,2-2,3.2-2.8c-0.7,1.3-2.1,1.9-2.8,3.2
		c-10.1,1-13,6-24.1,6c-7.8,14.3-4.4,37.6-3.2,53.6c0,0.5,0.3,2.3,2.4,2.8c-2.8,0-7.8,0-10.6,0c1.1-0.3,1.4-2,1.5-3
		c1.1-18,2.6-38.3,0.7-43.8c-1.4-2-1.1-5.5-3.2-6.8c-8.3-0.8-15.9-14.1-23.4-15.7v-0.4c7.5,0.9,14.3,12.8,22.2,13.3
		c-1.8-6.3-10.1-14.4-17-20.8c-0.7,0.1-1.4,0.2-2.1,0c-2.3-0.8-4.7-2.8-6.8-3.1c-0.8-0.1-1.4,0.4-2.2,0.4l-0.2-0.4
		c0.5-0.1,0.9-0.5,1.4-0.5c2.6-0.2,5.9,2.5,8.8,2.6C46.7,79.6,43.2,76.3,42.8,74.9z"/>
</g>
<g>
	<path fill="#006838" d="M412.7,116C412.7,116.1,412.7,116.1,412.7,116c-0.1,0.5-0.3,1.1-0.6,1.8l-9.6,26.6l-9.5-27.1
		c-0.2-0.6-0.4-1.1-0.5-1.5c-0.1-0.4-0.1-0.7-0.1-1c0-1,0.6-1.7,1.9-2.2c0.3-0.1,0.5-0.2,0.6-0.2c0.4-0.2,0.7-0.4,0.9-0.8
		c0.2-0.4,0.3-0.8,0.3-1.3v-2.8h-20.6v2.8c0,0.5,0.1,0.9,0.3,1.2c0.2,0.3,0.5,0.6,0.9,0.9c0.1,0.1,0.3,0.2,0.6,0.3
		c1.9,0.9,3.2,2.5,4.1,5l1.7,4.7l-8.6,22.1l-9.5-27.1c-0.2-0.6-0.4-1.1-0.5-1.5c-0.1-0.4-0.1-0.7-0.1-1c0-1,0.6-1.7,1.9-2.2
		c0.3-0.1,0.5-0.2,0.6-0.2c0.4-0.2,0.7-0.4,0.9-0.8c0.2-0.4,0.3-0.8,0.3-1.3v-2.8h-20.5v2.8c0,0.5,0.1,0.9,0.3,1.2
		c0.2,0.3,0.5,0.6,0.8,0.8c0.1,0.1,0.4,0.2,0.7,0.3c1.8,0.8,3.1,2.5,4,4.9l16,44.6h4.5l12.3-31.5l11.3,31.5h4.5l16.1-40.9
		c0.3-0.7,0.6-1.4,0.8-2C416.4,118.4,414.3,117.3,412.7,116z"/>
	<path fill="#006838" d="M434.7,157.3c-0.8-0.4-1.3-0.9-1.6-1.4c-0.3-0.5-0.4-1.4-0.4-2.8v-22.6h-13.9v2.8c0,0.6,0.4,1.1,1.2,1.5
		c0.1,0.1,0.2,0.1,0.3,0.2c0.8,0.4,1.3,0.8,1.5,1.3c0.3,0.5,0.4,1.5,0.4,2.9v13.9c0,1.5-0.1,2.4-0.4,2.9c-0.3,0.5-0.8,0.9-1.5,1.3
		c-0.6,0.3-1,0.6-1.2,0.9c-0.2,0.3-0.3,0.6-0.3,0.9v2.7h17.4v-2.7c0-0.4-0.1-0.7-0.3-1C435.6,157.9,435.2,157.6,434.7,157.3z"/>
	<path fill="#006838" d="M454.1,141.3c-0.4-0.2-1-0.4-1.7-0.7c-3.2-1.1-4.7-2.4-4.7-3.6c0-0.8,0.3-1.4,0.9-1.9
		c0.6-0.5,1.4-0.7,2.4-0.7c0.5,0,1,0.1,1.4,0.2c0.4,0.1,0.8,0.2,1.2,0.4c0,0.1,0,0.2,0,0.4c0,0.2,0,0.3,0,0.4c0,1.3,0.4,2.3,1.2,3
		c0.8,0.7,1.9,1.1,3.3,1.1c1.4,0,2.5-0.4,3.3-1.2c0.8-0.8,1.2-1.9,1.2-3.3c0-1.8-0.9-3.2-2.7-4.2c-1.8-1.1-4.3-1.6-7.4-1.6
		c-3.8,0-6.8,0.9-9.1,2.7c-2.3,1.8-3.4,4.2-3.4,7.2c0,2.2,0.6,4,1.8,5.3c1.2,1.4,4,2.9,8.4,4.6c0.2,0.1,0.5,0.2,0.9,0.4
		c3.7,1.4,5.6,2.9,5.6,4.4c0,1-0.4,1.7-1.3,2.3c-0.8,0.6-2,0.9-3.4,0.9c-0.6,0-1.2-0.1-1.9-0.2c-0.7-0.1-1.4-0.3-2.2-0.6
		c0-0.3,0.1-0.6,0.1-0.9c0-0.3,0-0.7,0-1.2c0-1.4-0.4-2.6-1.2-3.4c-0.8-0.8-2-1.2-3.4-1.2c-1.5,0-2.8,0.4-3.7,1.2
		c-0.9,0.8-1.3,1.9-1.3,3.3c0,2.6,1.1,4.7,3.4,6.1c2.3,1.4,5.6,2.1,9.9,2.1c4,0,7.2-1,9.6-2.9c2.4-1.9,3.6-4.5,3.6-7.7
		c0-2.5-0.7-4.5-2-6C461.5,144.6,458.6,143,454.1,141.3z"/>
	<path fill="#006838" d="M503.8,157.3c-0.8-0.4-1.3-0.9-1.6-1.4c-0.3-0.5-0.4-1.4-0.4-2.8v-11c0-4.1-0.9-7.1-2.7-9.2
		c-1.8-2-4.4-3-8-3c-1.9,0-3.7,0.3-5.5,1c-1.8,0.7-3.7,1.7-5.5,3.1v-26.4h-13.9v2.7c0,0.7,0.5,1.3,1.4,1.8c0.8,0.4,1.3,0.9,1.6,1.4
		c0.3,0.5,0.4,1.4,0.4,2.8v36.9c0,1.4-0.1,2.3-0.4,2.8c-0.3,0.5-0.8,1-1.6,1.4c-0.6,0.3-0.9,0.6-1.1,0.8c-0.2,0.3-0.3,0.6-0.3,1v2.7
		h17.4v-2.7c0-0.4-0.1-0.7-0.3-0.9c-0.2-0.3-0.6-0.5-1.2-0.9c-0.7-0.4-1.2-0.8-1.5-1.3c-0.3-0.5-0.4-1.4-0.4-2.9v-13.7
		c0.9-0.9,1.9-1.6,3-2.1c1.1-0.5,2.1-0.7,3.2-0.7c1.8,0,3.1,0.5,3.9,1.5c0.8,1,1.1,2.7,1.1,5.3v9.8c0,1.5-0.1,2.4-0.4,2.9
		c-0.3,0.5-0.8,0.9-1.5,1.3c-0.6,0.3-1,0.6-1.2,0.9c-0.2,0.3-0.3,0.6-0.3,0.9v2.7h17.4v-2.7c0-0.4-0.1-0.7-0.3-1
		C504.7,157.9,504.3,157.6,503.8,157.3z"/>
	<path fill="#006838" d="M522.6,129.6c-5.4,0-9.7,1.5-13,4.6c-3.3,3.1-4.9,7.2-4.9,12.3c0,4.8,1.6,8.7,4.8,11.7
		c3.2,3,7.3,4.5,12.4,4.5c2.6,0,5-0.5,7.4-1.4c2.4-0.9,4.5-2.2,6.5-3.9c0.7-0.6,1.1-1.1,1.4-1.5c0.3-0.4,0.4-0.8,0.4-1.2
		c0-0.2,0-0.3-0.1-0.5c-0.1-0.2-0.2-0.3-0.3-0.4l-2.6-2.8c-1.9,1.8-3.7,3.2-5.4,4c-1.7,0.9-3.6,1.3-5.4,1.3c-2.8,0-5-0.9-6.6-2.8
		c-1.5-1.9-2.3-4.6-2.4-8.1l22.8,0v-1.2c0-4.5-1.3-8.1-4-10.7C531.1,130.9,527.3,129.6,522.6,129.6z M515.6,140.1
		c0.4-1.9,1.1-3.3,2.1-4.3c1-1,2.4-1.5,4-1.5c1.6,0,2.9,0.5,3.8,1.5c0.9,1,1.5,2.4,1.6,4.3H515.6z"/>
	<path fill="#006838" d="M555.9,141.3c-0.4-0.2-1-0.4-1.7-0.7c-3.2-1.1-4.7-2.4-4.7-3.6c0-0.8,0.3-1.4,0.9-1.9
		c0.6-0.5,1.4-0.7,2.4-0.7c0.5,0,1,0.1,1.4,0.2c0.4,0.1,0.8,0.2,1.2,0.4c0,0.1,0,0.2,0,0.4c0,0.2,0,0.3,0,0.4c0,1.3,0.4,2.3,1.2,3
		c0.8,0.7,1.9,1.1,3.3,1.1c1.4,0,2.5-0.4,3.3-1.2c0.8-0.8,1.2-1.9,1.2-3.3c0-1.8-0.9-3.2-2.7-4.2c-1.8-1.1-4.3-1.6-7.4-1.6
		c-3.8,0-6.8,0.9-9.1,2.7c-2.3,1.8-3.4,4.2-3.4,7.2c0,2.2,0.6,4,1.8,5.3c1.2,1.4,4,2.9,8.4,4.6c0.2,0.1,0.5,0.2,0.9,0.4
		c3.7,1.4,5.6,2.9,5.6,4.4c0,1-0.4,1.7-1.3,2.3c-0.8,0.6-2,0.9-3.4,0.9c-0.6,0-1.2-0.1-1.9-0.2c-0.7-0.1-1.4-0.3-2.2-0.6
		c0-0.3,0.1-0.6,0.1-0.9c0-0.3,0-0.7,0-1.2c0-1.4-0.4-2.6-1.2-3.4c-0.8-0.8-2-1.2-3.4-1.2c-1.5,0-2.8,0.4-3.6,1.2
		c-0.9,0.8-1.3,1.9-1.3,3.3c0,2.6,1.1,4.7,3.4,6.1c2.3,1.4,5.6,2.1,9.9,2.1c4,0,7.2-1,9.6-2.9c2.4-1.9,3.6-4.5,3.6-7.7
		c0-2.5-0.7-4.5-2-6C563.3,144.6,560.4,143,555.9,141.3z"/>
	<path fill="#006838" d="M582.4,118.6h-2.2l-1.3,3.9c-0.2,0.5-0.3,1.2-0.5,1.9h0c-0.2-0.8-0.3-1.4-0.5-2l-1.3-3.8h-2.3l-0.6,7.8h1.5
		l0.3-4.6c0-0.7,0.1-1.5,0.1-2.2h0.1c0.2,0.7,0.4,1.6,0.5,2.2l1.4,4.4h1.6l1.4-4.3c0.2-0.7,0.5-1.6,0.7-2.3h0.1c0,0.8,0,1.6,0.1,2.2
		l0.3,4.6h1.5L582.4,118.6z"/>
	<polygon fill="#006838" points="566.6,119.9 569,119.9 569,126.4 570.6,126.4 570.6,119.9 573.1,119.9 573.1,118.6 566.6,118.6 	
		"/>
	<path fill="#F9A142" d="M422.3,102c-4.9-1.1-9-0.5-11.6,1.8c1.2,1.9,3,3.8,5.3,5.6c1.8,1.4,3.8,2.7,6.1,3.7
		c0.7,0.3,1.4,0.6,2.2,0.9c1,0.4,2,0.8,3.1,1.2c3.2,1.2,6.5,2.1,8.8,2.1c-2.5,0.2-6-0.2-9.4-1c-1.3-0.3-2.7-0.7-3.9-1.1
		c-1.1-0.3-2.1-0.7-3-1.1c-2.9-1.2-5.8-3.2-8-5.2c-1.1-1-2.1-2-2.9-2.9c0,0-2.7-2.9-3.8-4.7c-1.3-2.1-2.4-4.2-3.2-6.2
		c-0.7-1.9-2.7-0.6-1.9,1.3c0.8,1.9,1.9,3.9,3.1,5.9c1.5,2.3,3.2,4.3,5,5.9c-0.6,2.9,0.8,6.3,3.9,9.3c1.5,1.4,3.4,2.8,5.6,3.9
		c1.9,0.9,4,1.7,6.4,2.2c10.3,2.3,18.1-1.3,26.7-6.1C434.4,115.6,432.5,104.3,422.3,102z"/>
</g>
<g>
	<linearGradient id="SVGID_1_" gradientUnits="userSpaceOnUse" x1="76.6835" y1="83.8149" x2="94.708" y2="83.8149">
		<stop  offset="0" style="stop-color:#BE1E2D"/>
		<stop  offset="5.368276e-002" style="stop-color:#C63A30"/>
		<stop  offset="0.1513" style="stop-color:#D35C35"/>
		<stop  offset="0.2535" style="stop-color:#DE7439"/>
		<stop  offset="0.3602" style="stop-color:#E8873D"/>
		<stop  offset="0.4731" style="stop-color:#F09540"/>
		<stop  offset="0.5964" style="stop-color:#F79E41"/>
		<stop  offset="0.75" style="stop-color:#F9A142"/>
	</linearGradient>
	<path fill="url(#SVGID_1_)" d="M82.5,79.4c-2-0.3-3.7,0.2-4.6,1.2c0.1,0.2,0.1-0.2,0,0c-0.2,0.3-1.4,1.1-1.2,2.4
		c0.2,1.1,1.6,2.6,2.3,3.1c0.7,0.5,1.5,1,2.5,1.3c0.8,0.3,1.7,0.5,2.7,0.6c4.3,0.5,7.3-1.3,10.6-3.6C88,84.5,86.8,80,82.5,79.4z"/>
	<path fill="#006838" d="M84.2,68c-2,0.5-3.3,1.6-3.8,2.9c0.2,0.1,0-0.2,0,0c-0.1,0.3-0.9,1.6-0.2,2.7c0.6,1,2.5,1.8,3.3,2
		c0.8,0.2,1.7,0.3,2.8,0.3c0.9,0,1.8-0.2,2.7-0.4c4.1-1.1,6.2-4,8.4-7.3C91.2,70.6,88.3,66.9,84.2,68z"/>
	<linearGradient id="SVGID_2_" gradientUnits="userSpaceOnUse" x1="68.5565" y1="62.9186" x2="76.7387" y2="62.9186">
		<stop  offset="0" style="stop-color:#BE1E2D"/>
		<stop  offset="5.368276e-002" style="stop-color:#C63A30"/>
		<stop  offset="0.1513" style="stop-color:#D35C35"/>
		<stop  offset="0.2535" style="stop-color:#DE7439"/>
		<stop  offset="0.3602" style="stop-color:#E8873D"/>
		<stop  offset="0.4731" style="stop-color:#F09540"/>
		<stop  offset="0.5964" style="stop-color:#F79E41"/>
		<stop  offset="0.75" style="stop-color:#F9A142"/>
	</linearGradient>
	<path fill="url(#SVGID_2_)" d="M68.6,67.1c0.3,2,1.2,3.5,2.5,4.1c0.1-0.2-0.2-0.1,0,0c0.3,0.1,1.5,1,2.7,0.5c1-0.5,2.1-2.3,2.4-3.1
		c0.3-0.8,0.5-1.7,0.6-2.7c0.1-0.9,0-1.8-0.1-2.8c-0.7-4.2-3.2-6.6-6.4-9.2C72,60.4,68,62.9,68.6,67.1z"/>
	<linearGradient id="SVGID_3_" gradientUnits="userSpaceOnUse" x1="51.4477" y1="75.5143" x2="69.1447" y2="75.5143">
		<stop  offset="0" style="stop-color:#BE1E2D"/>
		<stop  offset="5.368276e-002" style="stop-color:#C63A30"/>
		<stop  offset="0.1513" style="stop-color:#D35C35"/>
		<stop  offset="0.2535" style="stop-color:#DE7439"/>
		<stop  offset="0.3602" style="stop-color:#E8873D"/>
		<stop  offset="0.4731" style="stop-color:#F09540"/>
		<stop  offset="0.5964" style="stop-color:#F79E41"/>
		<stop  offset="0.75" style="stop-color:#F9A142"/>
	</linearGradient>
	<path fill="url(#SVGID_3_)" d="M62.9,80c2,0.5,3.6,0.3,4.7-0.7c-0.1-0.2-0.1,0.2,0,0c0.2-0.2,1.5-1,1.5-2.3c0-1.1-1.3-2.8-1.9-3.4
		c-0.6-0.6-1.4-1.1-2.3-1.6c-0.8-0.4-1.6-0.7-2.6-1c-4.2-1-7.4,0.4-10.9,2.3C58,74.3,58.7,79,62.9,80z"/>
	<path fill="#BE1E2D" d="M68.9,89.8c1.9-0.8,3-2,3.4-3.4c-0.2-0.1,0,0.2,0,0c0-0.3,0.6-1.7-0.2-2.7c-0.7-0.9-2.8-1.4-3.5-1.5
		c-0.8-0.1-1.8-0.1-2.8,0.1c-0.8,0.2-1.7,0.4-2.6,0.8c-3.9,1.7-5.6,4.8-7.3,8.5C61.6,88.2,65,91.5,68.9,89.8z"/>
	<path fill="#006838" d="M56.9,66.7c1.5,1.4,3,2,4.4,1.8c0-0.2-0.2,0.1,0,0c0.3-0.1,1.8-0.1,2.4-1.2c0.5-1,0.2-3.1,0-3.9
		c-0.2-0.8-0.6-1.7-1.2-2.5c-0.5-0.7-1.1-1.4-1.8-2.1c-3.1-3-6.6-3.3-10.6-3.5C55.5,59.4,53.8,63.8,56.9,66.7z"/>
	<linearGradient id="SVGID_4_" gradientUnits="userSpaceOnUse" x1="38.2168" y1="80.7117" x2="56.3341" y2="80.7117">
		<stop  offset="0" style="stop-color:#BE1E2D"/>
		<stop  offset="5.368276e-002" style="stop-color:#C63A30"/>
		<stop  offset="0.1513" style="stop-color:#D35C35"/>
		<stop  offset="0.2535" style="stop-color:#DE7439"/>
		<stop  offset="0.3602" style="stop-color:#E8873D"/>
		<stop  offset="0.4731" style="stop-color:#F09540"/>
		<stop  offset="0.5964" style="stop-color:#F79E41"/>
		<stop  offset="0.75" style="stop-color:#F9A142"/>
	</linearGradient>
	<path fill="url(#SVGID_4_)" d="M51,84.9c2,0,3.6-0.7,4.4-1.8c-0.2-0.2-0.1,0.2,0,0c0.2-0.3,1.2-1.3,0.9-2.6c-0.3-1.1-2-2.4-2.7-2.8
		c-0.7-0.4-1.6-0.8-2.6-1c-0.8-0.2-1.8-0.3-2.8-0.3c-4.3,0-7.1,2.2-10,4.9C44.8,80.7,46.7,85,51,84.9z"/>
	<linearGradient id="SVGID_5_" gradientUnits="userSpaceOnUse" x1="80.2439" y1="52.4191" x2="91.1486" y2="52.4191">
		<stop  offset="0" style="stop-color:#BE1E2D"/>
		<stop  offset="5.368276e-002" style="stop-color:#C63A30"/>
		<stop  offset="0.1513" style="stop-color:#D35C35"/>
		<stop  offset="0.2535" style="stop-color:#DE7439"/>
		<stop  offset="0.3602" style="stop-color:#E8873D"/>
		<stop  offset="0.4731" style="stop-color:#F09540"/>
		<stop  offset="0.5964" style="stop-color:#F79E41"/>
		<stop  offset="0.75" style="stop-color:#F9A142"/>
	</linearGradient>
	<path fill="url(#SVGID_5_)" d="M81.1,53.8c-0.9,1.8-1.1,3.5-0.5,4.8c0.2-0.1-0.1-0.2,0,0c0.2,0.3,0.6,1.7,1.8,2
		c1.1,0.2,3-0.6,3.7-1c0.7-0.4,1.4-1,2.1-1.8c0.6-0.7,1.1-1.4,1.6-2.3c2-3.8,1.4-7.3,0.4-11.2C87.8,50.4,83.1,50,81.1,53.8z"/>
	<path fill="#BE1E2D" d="M99.2,74.6c-2,0.4-3.4,1.4-3.9,2.7c0.2,0.1,0.1-0.2,0,0c-0.1,0.3-0.9,1.5-0.3,2.7c0.5,1,2.4,1.9,3.2,2.2
		c0.8,0.3,1.7,0.4,2.8,0.4c0.9,0,1.8-0.1,2.8-0.3c4.2-0.9,6.4-3.7,8.8-6.9C106.1,77.5,103.4,73.6,99.2,74.6z"/>
	<linearGradient id="SVGID_6_" gradientUnits="userSpaceOnUse" x1="86.8411" y1="97.2316" x2="103.082" y2="97.2316">
		<stop  offset="0" style="stop-color:#BE1E2D"/>
		<stop  offset="5.368276e-002" style="stop-color:#C63A30"/>
		<stop  offset="0.1513" style="stop-color:#D35C35"/>
		<stop  offset="0.2535" style="stop-color:#DE7439"/>
		<stop  offset="0.3602" style="stop-color:#E8873D"/>
		<stop  offset="0.4731" style="stop-color:#F09540"/>
		<stop  offset="0.5964" style="stop-color:#F79E41"/>
		<stop  offset="0.75" style="stop-color:#F9A142"/>
	</linearGradient>
	<path fill="url(#SVGID_6_)" d="M93.7,92.6c-1.8-1-3.5-1.2-4.8-0.6c0.1,0.2,0.2-0.1,0,0c-0.3,0.2-1.7,0.5-2,1.8
		c-0.3,1.1,0.6,3,1,3.7c0.4,0.7,1,1.5,1.8,2.1c0.6,0.6,1.4,1.1,2.3,1.6c3.8,2.1,7.2,1.5,11.2,0.6C96.9,99.3,97.4,94.7,93.7,92.6z"/>
	<path fill="#F15A29" d="M73.7,102.4c1.3,1.6,2.8,2.4,4.2,2.2c0-0.2-0.2,0,0,0c0.3-0.1,1.8,0.1,2.5-0.9c0.6-0.9,0.6-3,0.4-3.8
		c-0.1-0.8-0.4-1.7-0.9-2.6c-0.4-0.8-0.9-1.5-1.5-2.3c-2.8-3.3-6.2-4-10.2-4.6C73.1,95,70.9,99.1,73.7,102.4z"/>
	<linearGradient id="SVGID_7_" gradientUnits="userSpaceOnUse" x1="52.2065" y1="100.3996" x2="68.3858" y2="100.3996">
		<stop  offset="0" style="stop-color:#BE1E2D"/>
		<stop  offset="5.368276e-002" style="stop-color:#C63A30"/>
		<stop  offset="0.1513" style="stop-color:#D35C35"/>
		<stop  offset="0.2535" style="stop-color:#DE7439"/>
		<stop  offset="0.3602" style="stop-color:#E8873D"/>
		<stop  offset="0.4731" style="stop-color:#F09540"/>
		<stop  offset="0.5964" style="stop-color:#F79E41"/>
		<stop  offset="0.75" style="stop-color:#F9A142"/>
	</linearGradient>
	<path fill="url(#SVGID_7_)" d="M65.1,102.8c1.8-0.9,2.9-2.2,3.1-3.6c-0.2-0.1,0,0.2,0,0c0-0.3,0.5-1.7-0.4-2.7
		c-0.8-0.8-2.8-1.2-3.6-1.3c-0.8,0-1.8,0-2.8,0.3c-0.8,0.2-1.7,0.5-2.6,1c-3.8,2-5.3,5.2-6.7,9C57.7,101.8,61.3,104.8,65.1,102.8z"
		/>
	<linearGradient id="SVGID_8_" gradientUnits="userSpaceOnUse" x1="36.0981" y1="95.2567" x2="53.2324" y2="95.2567">
		<stop  offset="0" style="stop-color:#BE1E2D"/>
		<stop  offset="5.368276e-002" style="stop-color:#C63A30"/>
		<stop  offset="0.1513" style="stop-color:#D35C35"/>
		<stop  offset="0.2535" style="stop-color:#DE7439"/>
		<stop  offset="0.3602" style="stop-color:#E8873D"/>
		<stop  offset="0.4731" style="stop-color:#F09540"/>
		<stop  offset="0.5964" style="stop-color:#F79E41"/>
		<stop  offset="0.75" style="stop-color:#F9A142"/>
	</linearGradient>
	<path fill="url(#SVGID_8_)" d="M49.3,98.8c1.9-0.7,3.2-1.8,3.6-3.2c-0.2-0.1,0,0.2,0,0c0-0.3,0.7-1.6,0-2.7
		c-0.6-0.9-2.6-1.6-3.4-1.8c-0.8-0.2-1.8-0.2-2.8-0.1c-0.9,0.1-1.8,0.3-2.7,0.6c-4,1.4-6,4.4-7.9,7.9
		C42.1,96.7,45.2,100.2,49.3,98.8z"/>
	<path fill="#006838" d="M34.8,91.2c2,0.2,3.7-0.2,4.6-1.3c-0.1-0.2-0.1,0.2,0,0c0.2-0.3,1.4-1.2,1.2-2.4c-0.2-1.1-1.7-2.6-2.3-3.1
		c-0.7-0.5-1.5-1-2.5-1.3c-0.8-0.3-1.7-0.5-2.7-0.6c-4.3-0.5-7.3,1.4-10.5,3.7C29.2,86.2,30.5,90.7,34.8,91.2z"/>
	<linearGradient id="SVGID_9_" gradientUnits="userSpaceOnUse" x1="21.2305" y1="71.8608" x2="37.3271" y2="71.8608">
		<stop  offset="0" style="stop-color:#BE1E2D"/>
		<stop  offset="5.368276e-002" style="stop-color:#C63A30"/>
		<stop  offset="0.1513" style="stop-color:#D35C35"/>
		<stop  offset="0.2535" style="stop-color:#DE7439"/>
		<stop  offset="0.3602" style="stop-color:#E8873D"/>
		<stop  offset="0.4731" style="stop-color:#F09540"/>
		<stop  offset="0.5964" style="stop-color:#F79E41"/>
		<stop  offset="0.75" style="stop-color:#F9A142"/>
	</linearGradient>
	<path fill="url(#SVGID_9_)" d="M30.5,76.5c1.8,1,3.4,1.2,4.7,0.6c-0.1-0.2-0.2,0.1,0,0c0.3-0.2,1.7-0.5,2.1-1.8
		c0.3-1.1-0.5-3-0.9-3.7c-0.4-0.7-1-1.5-1.8-2.2c-0.6-0.6-1.4-1.1-2.2-1.6c-3.7-2.1-7.2-1.6-11.1-0.8C27.3,69.7,26.7,74.3,30.5,76.5
		z"/>
	<path fill="#BE1E2D" d="M40,52c1.4,1.5,2.9,2.2,4.3,2c0-0.2-0.2,0.1,0,0c0.3-0.1,1.8,0,2.5-1.1c0.6-0.9,0.4-3.1,0.2-3.8
		c-0.2-0.8-0.5-1.7-1-2.6c-0.4-0.7-1-1.5-1.6-2.2c-2.9-3.1-6.4-3.7-10.4-4.1C39,44.6,37,48.8,40,52z"/>
	
		<linearGradient id="SVGID_10_" gradientUnits="userSpaceOnUse" x1="67.7112" y1="-36.0881" x2="80.0495" y2="-36.0881" gradientTransform="matrix(0.8608 -0.5089 0.5089 0.8608 12.4 112.511)">
		<stop  offset="0" style="stop-color:#BE1E2D"/>
		<stop  offset="5.368276e-002" style="stop-color:#C63A30"/>
		<stop  offset="0.1513" style="stop-color:#D35C35"/>
		<stop  offset="0.2535" style="stop-color:#DE7439"/>
		<stop  offset="0.3602" style="stop-color:#E8873D"/>
		<stop  offset="0.4731" style="stop-color:#F09540"/>
		<stop  offset="0.5964" style="stop-color:#F79E41"/>
		<stop  offset="0.75" style="stop-color:#F9A142"/>
	</linearGradient>
	<path fill="url(#SVGID_10_)" d="M59.1,48.7c1.9,0.7,3.6,0.7,4.8-0.1c-0.1-0.2-0.2,0.1,0,0c0.3-0.2,1.6-0.8,1.8-2.1
		c0.1-1.1-1-2.9-1.5-3.6c-0.5-0.7-1.2-1.3-2-1.9c-0.7-0.5-1.5-0.9-2.5-1.3c-4-1.6-7.4-0.6-11.1,0.9C55,42.4,55.1,47.1,59.1,48.7z"/>
	<path fill="#F47920" d="M72.8,42.9c-0.6,2-0.4,3.6,0.5,4.8c0.2-0.1-0.1-0.1,0,0c0.2,0.2,0.9,1.6,2.2,1.6c1.1,0,2.8-1.2,3.4-1.8
		c0.6-0.6,1.2-1.3,1.7-2.2c0.4-0.8,0.8-1.6,1.1-2.6c1.2-4.1-0.1-7.4-1.8-11C78.7,38.3,74,38.8,72.8,42.9z"/>
	<linearGradient id="SVGID_11_" gradientUnits="userSpaceOnUse" x1="94.5499" y1="54.8902" x2="106.1759" y2="54.8902">
		<stop  offset="0" style="stop-color:#BE1E2D"/>
		<stop  offset="5.368276e-002" style="stop-color:#C63A30"/>
		<stop  offset="0.1513" style="stop-color:#D35C35"/>
		<stop  offset="0.2535" style="stop-color:#DE7439"/>
		<stop  offset="0.3602" style="stop-color:#E8873D"/>
		<stop  offset="0.4731" style="stop-color:#F09540"/>
		<stop  offset="0.5964" style="stop-color:#F79E41"/>
		<stop  offset="0.75" style="stop-color:#F9A142"/>
	</linearGradient>
	<path fill="url(#SVGID_11_)" d="M95.7,55.7c-1.1,1.7-1.5,3.4-1,4.7c0.2-0.1-0.1-0.2,0,0c0.2,0.3,0.4,1.8,1.6,2.2
		c1.1,0.3,3.1-0.3,3.8-0.7c0.8-0.4,1.5-0.9,2.3-1.6c0.6-0.6,1.2-1.3,1.8-2.1c2.4-3.6,2.1-7.1,1.5-11.1C102.7,53,98.1,52.1,95.7,55.7
		z"/>
	<linearGradient id="SVGID_12_" gradientUnits="userSpaceOnUse" x1="105.6723" y1="62.667" x2="120.7808" y2="62.667">
		<stop  offset="0" style="stop-color:#BE1E2D"/>
		<stop  offset="5.368276e-002" style="stop-color:#C63A30"/>
		<stop  offset="0.1513" style="stop-color:#D35C35"/>
		<stop  offset="0.2535" style="stop-color:#DE7439"/>
		<stop  offset="0.3602" style="stop-color:#E8873D"/>
		<stop  offset="0.4731" style="stop-color:#F09540"/>
		<stop  offset="0.5964" style="stop-color:#F79E41"/>
		<stop  offset="0.75" style="stop-color:#F9A142"/>
	</linearGradient>
	<path fill="url(#SVGID_12_)" d="M108.3,61.1c-1.7,1.2-2.6,2.6-2.6,4c0.2,0,0-0.2,0,0c0,0.3-0.3,1.8,0.7,2.6c0.9,0.7,3,0.8,3.8,0.8
		c0.8-0.1,1.8-0.3,2.7-0.7c0.8-0.3,1.6-0.8,2.4-1.3c3.5-2.5,4.6-5.8,5.5-9.7C115.8,61.2,111.8,58.7,108.3,61.1z"/>
	<linearGradient id="SVGID_13_" gradientUnits="userSpaceOnUse" x1="101.9628" y1="95.2563" x2="119.6372" y2="95.2563">
		<stop  offset="0" style="stop-color:#BE1E2D"/>
		<stop  offset="5.368276e-002" style="stop-color:#C63A30"/>
		<stop  offset="0.1513" style="stop-color:#D35C35"/>
		<stop  offset="0.2535" style="stop-color:#DE7439"/>
		<stop  offset="0.3602" style="stop-color:#E8873D"/>
		<stop  offset="0.4731" style="stop-color:#F09540"/>
		<stop  offset="0.5964" style="stop-color:#F79E41"/>
		<stop  offset="0.75" style="stop-color:#F9A142"/>
	</linearGradient>
	<path fill="url(#SVGID_13_)" d="M106.4,91.3c-2,0.4-3.4,1.4-3.9,2.7c0.2,0.1,0.1-0.2,0,0c-0.1,0.3-0.9,1.5-0.3,2.7
		c0.5,1,2.4,1.9,3.2,2.2c0.8,0.3,1.7,0.4,2.8,0.4c0.9,0,1.8-0.1,2.8-0.3c4.2-0.9,6.4-3.7,8.8-6.9C113.3,94.2,110.6,90.4,106.4,91.3z
		"/>
	<path fill="#006838" d="M95.8,40.3c-1,1.8-1.2,3.5-0.6,4.7c0.2-0.1-0.1-0.2,0,0c0.2,0.3,0.5,1.7,1.8,2c1.1,0.3,3-0.5,3.7-0.9
		c0.7-0.4,1.5-1,2.2-1.8c0.6-0.6,1.1-1.4,1.6-2.3c2.1-3.7,1.6-7.2,0.7-11.1C102.5,37.1,97.9,36.5,95.8,40.3z"/>
	<path fill="#BE1E2D" d="M83,32.9c0.6,2,1.6,3.3,2.9,3.8c0.1-0.2-0.2,0,0,0c0.3,0.1,1.6,0.8,2.7,0.2c1-0.6,1.8-2.5,2-3.3
		c0.2-0.8,0.3-1.8,0.3-2.8c0-0.9-0.2-1.8-0.5-2.7c-1.2-4.1-4-6.2-7.4-8.4C85.5,25.8,81.8,28.7,83,32.9z"/>
	<linearGradient id="SVGID_14_" gradientUnits="userSpaceOnUse" x1="60.0322" y1="32.3028" x2="71.4663" y2="32.3028">
		<stop  offset="0" style="stop-color:#BE1E2D"/>
		<stop  offset="5.368276e-002" style="stop-color:#C63A30"/>
		<stop  offset="0.1513" style="stop-color:#D35C35"/>
		<stop  offset="0.2535" style="stop-color:#DE7439"/>
		<stop  offset="0.3602" style="stop-color:#E8873D"/>
		<stop  offset="0.4731" style="stop-color:#F09540"/>
		<stop  offset="0.5964" style="stop-color:#F79E41"/>
		<stop  offset="0.75" style="stop-color:#F9A142"/>
	</linearGradient>
	<path fill="url(#SVGID_14_)" d="M64,37.2c1.1,1.7,2.5,2.7,3.9,2.7c0-0.2-0.2,0,0,0c0.3,0,1.8,0.3,2.6-0.7c0.7-0.8,0.9-3,0.9-3.8
		c0-0.8-0.2-1.8-0.6-2.7c-0.3-0.8-0.7-1.6-1.3-2.5c-2.4-3.6-5.7-4.7-9.6-5.7C64.3,29.8,61.6,33.6,64,37.2z"/>
	<path fill="#F47920" d="M112.3,80.3c-1.7,1.1-2.7,2.5-2.7,3.9c0.2,0,0-0.2,0,0c0,0.3-0.3,1.8,0.7,2.6c0.8,0.7,3,0.9,3.8,0.9
		c0.8,0,1.8-0.2,2.7-0.6c0.8-0.3,1.6-0.7,2.5-1.3c3.6-2.4,4.7-5.7,5.7-9.6C119.7,80.6,115.9,78,112.3,80.3z"/>
	<linearGradient id="SVGID_15_" gradientUnits="userSpaceOnUse" x1="23.9375" y1="59.7342" x2="39.1637" y2="59.7342">
		<stop  offset="0" style="stop-color:#BE1E2D"/>
		<stop  offset="5.368276e-002" style="stop-color:#C63A30"/>
		<stop  offset="0.1513" style="stop-color:#D35C35"/>
		<stop  offset="0.2535" style="stop-color:#DE7439"/>
		<stop  offset="0.3602" style="stop-color:#E8873D"/>
		<stop  offset="0.4731" style="stop-color:#F09540"/>
		<stop  offset="0.5964" style="stop-color:#F79E41"/>
		<stop  offset="0.75" style="stop-color:#F9A142"/>
	</linearGradient>
	<path fill="url(#SVGID_15_)" d="M32.2,64.4c1.7,1.2,3.3,1.6,4.6,1.1c0-0.2-0.2,0.1,0,0c0.3-0.1,1.8-0.3,2.2-1.6
		c0.4-1-0.2-3.1-0.5-3.8c-0.3-0.8-0.8-1.6-1.5-2.3c-0.6-0.6-1.2-1.3-2.1-1.9c-3.5-2.5-7-2.4-11-1.9C29.7,57.3,28.7,61.9,32.2,64.4z"
		/>
	<path fill="#F47920" d="M43.5,68.8c0,2,0.5,3.6,1.7,4.5c0.2-0.2-0.2-0.1,0,0c0.3,0.2,1.3,1.3,2.5,1c1.1-0.3,2.4-1.9,2.9-2.6
		c0.5-0.7,0.8-1.6,1.1-2.6c0.2-0.8,0.4-1.7,0.4-2.7c0.1-4.3-2-7.1-4.6-10.2C47.9,62.8,43.6,64.5,43.5,68.8z"/>
</g>
<g>
	<path fill="#006838" d="M256.9,154c0,1.5,0.1,2.5,0.4,3c0.3,0.5,0.9,1,1.7,1.4c0.6,0.3,1,0.6,1.2,0.9c0.2,0.3,0.3,0.6,0.3,1v2.9
		h-18.2v-2.9c0-0.4,0.1-0.7,0.3-1c0.2-0.3,0.6-0.6,1.3-0.9c0.8-0.4,1.3-0.9,1.6-1.4c0.3-0.5,0.4-1.5,0.4-3.1v-14.6
		c0-1.5-0.1-2.6-0.4-3.1c-0.3-0.5-0.8-1-1.6-1.4c-0.1-0.1-0.2-0.1-0.3-0.2c-0.8-0.5-1.3-1-1.3-1.6v-2.9h14.6V154z M245.5,113.8
		c0-1.6,0.6-2.9,1.7-4.1c1.1-1.1,2.5-1.7,4.1-1.7c1.6,0,3,0.6,4.1,1.7c1.1,1.1,1.7,2.5,1.7,4.1c0,1.6-0.6,2.9-1.7,4.1
		c-1.1,1.1-2.5,1.7-4,1.7c-1.5,0-2.9-0.6-4-1.7C246,116.6,245.5,115.3,245.5,113.8z"/>
	<path fill="#006838" d="M239.9,162.7H197v-2.8c0-0.5,0.1-0.8,0.3-1.1c0.2-0.3,0.5-0.6,1.1-0.9c1.4-0.8,2.3-1.6,2.7-2.5
		c0.4-0.9,0.6-2.2,0.6-3.9v-31.9c0-1.8-0.2-3.1-0.5-3.9c-0.3-0.8-1.1-1.7-2.3-2.5c-0.4-0.3-0.7-0.6-0.8-0.8
		c-0.1-0.3-0.2-0.7-0.2-1.2v-2.8h18.9v2.8c0,0.5-0.1,0.8-0.2,1.2c-0.1,0.3-0.4,0.6-0.9,0.9c-1.2,0.8-1.9,1.6-2.2,2.4
		c-0.3,0.8-0.4,2.1-0.4,4v37h11c2.8,0,4.8-0.3,6-0.9c1.2-0.6,2.4-1.7,3.5-3.4c0.2-0.3,0.4-0.6,0.7-1.1c0.9-1.5,1.9-2.3,2.9-2.3h2.9
		V162.7z"/>
	<path fill="#006838" d="M277.8,154c0,1.4,0.1,2.3,0.4,2.8c0.3,0.5,0.8,1,1.6,1.4c0.6,0.3,1,0.6,1.2,0.8c0.2,0.3,0.3,0.6,0.3,1v2.7
		h-17.4V160c0-0.4,0.1-0.7,0.3-0.9c0.2-0.3,0.6-0.5,1.2-0.9c0.8-0.4,1.3-0.8,1.5-1.3c0.3-0.5,0.4-1.4,0.4-2.9v-17.4h-3.7v-3.5
		c0-0.8,0.4-1.3,1.3-1.7c0.5-0.2,0.9-0.4,1.2-0.5c0.7-0.4,1.1-1.6,1.2-3.5c0-0.1,0-0.2,0-0.3c0.4-6,1.9-10.6,4.4-13.8
		c2.6-3.2,6.1-4.8,10.5-4.8c2,0,3.6,0.5,4.8,1.4c1.1,0.9,1.7,2.3,1.7,3.9c0,1.3-0.4,2.3-1.1,3.1c-0.7,0.8-1.8,1.2-3,1.2
		c-1.3,0-2.2-0.3-2.9-0.9c-0.6-0.6-1-1.5-1-2.7c0-0.2,0-0.4,0-0.6c0-0.1,0-0.3,0.1-0.4c-1.1,0-1.9,0.6-2.4,1.7
		c-0.5,1.1-0.7,3.2-0.7,6.1v10h7.6v5.2h-7.6V154z"/>
	<path fill="#006838" d="M295.9,146.3c0,3.5,0.8,6.3,2.4,8.1c1.5,1.9,3.7,2.8,6.5,2.8c1.9,0,3.7-0.4,5.4-1.3c1.7-0.9,3.6-2.2,5.4-4
		l2.6,2.8c0.1,0.1,0.2,0.2,0.3,0.4c0.1,0.2,0.1,0.4,0.1,0.5c0,0.4-0.1,0.8-0.4,1.2c-0.3,0.4-0.8,0.9-1.4,1.5c-1.9,1.7-4.1,3-6.5,3.9
		c-2.4,0.9-4.9,1.4-7.4,1.4c-5.1,0-9.3-1.5-12.4-4.5c-3.2-3-4.8-6.9-4.8-11.7c0-5.1,1.6-9.2,4.9-12.3c3.3-3.1,7.6-4.6,13-4.6
		c4.8,0,8.5,1.3,11.2,3.9c2.7,2.6,4,6.1,4,10.7v1.2L295.9,146.3z M296.5,141h11.6c-0.1-1.9-0.7-3.3-1.6-4.3c-0.9-1-2.2-1.5-3.8-1.5
		c-1.6,0-3,0.5-4,1.5C297.6,137.7,296.9,139.1,296.5,141z"/>
</g>
<path fill="#809E83" d="M357.5,159.6c-0.5,0.2-1,0.4-1.6,0.5c-0.6,0.1-1.2,0.1-1.8,0.1c-1.1,0-2.2-0.2-3.2-0.6c-1-0.4-1.9-1-2.7-1.8
	c1.2-1.3,2.3-2.8,3.3-4.4c1-1.6,1.5-2.4,1.6-2.5c0.5-0.5,1.2-0.8,2.2-1.2c0.4-0.1,0.6-0.2,0.8-0.3c0.3-0.2,0.5-0.3,0.6-0.5
	c0.1-0.2,0.2-0.5,0.2-1v-1.3H346h-0.4v1.3c0,0.6,0.2,1,0.7,1.3c0.2,0.1,0.4,0.2,0.6,0.3c0.1,0,0.2,0.1,0.3,0.1
	c0.6,0.2,0.9,0.4,1.1,0.6c0.2,0.2,0.3,0.6,0.3,1c0,0.6-0.2,1.1-0.5,1.8c-0.3,0.5-0.7,1-1.2,1.6c-0.2,0.2-0.3,0.3-0.5,0.5
	c-1.1-1.6-2.1-3.2-3-4.7c-0.9-1.5-1.7-3-2.3-4.4c2.1-0.8,3.7-1.6,4.9-2.4c0.3-0.2,0.6-0.4,0.8-0.7c1.1-1.1,1.7-2.5,1.7-4.2
	c0-1.6-0.5-2.9-1.4-4c-0.2-0.2-0.4-0.4-0.6-0.6c-0.4-0.4-0.9-0.6-1.4-0.9c-0.5-0.2-1-0.4-1.5-0.5c-0.8-0.2-1.6-0.3-2.5-0.3
	c-2,0-3.7,0.5-5.1,1.4c-0.4,0.2-0.7,0.5-1.1,0.8c-0.3,0.2-0.5,0.5-0.7,0.7c-1.2,1.3-1.8,2.9-1.8,4.7c0,0.8,0.1,1.6,0.3,2.6
	c0.2,0.8,0.5,1.7,0.9,2.7c0,0.1,0.1,0.2,0.1,0.4c-0.1,0-0.1,0-0.2,0.1c-0.9,0.3-1.7,0.7-2.4,1.1c-1.7,0.9-3.1,1.8-4.1,2.9
	c-1.5,1.6-2.2,3.6-2.2,5.8c0,2.6,0.9,4.8,2.8,6.4c0.4,0.3,0.8,0.6,1.2,0.8c1.7,1,3.7,1.6,6.1,1.6c1.6,0,3.1-0.2,4.6-0.7
	c1.5-0.5,3.1-1.2,4.6-2.1c1.2,0.9,2.4,1.6,3.7,2.1c1.3,0.5,2.8,0.7,4.3,0.7c0.2,0,0.5,0,0.7,0c0.9-0.1,1.9-0.2,2.7-0.4
	c1.1-0.3,2.2-0.8,3.2-1.5L357.5,159.6z M342.6,141.1c-0.7,0.8-1.8,1.5-3.3,2.1c-0.5-1.1-0.9-2-1.1-2.7c-0.2-0.7-0.3-1.3-0.3-1.7
	c0-0.9,0.2-1.5,0.7-2.1c0,0,0-0.1,0.1-0.1c0.5-0.5,1.2-0.8,2.1-0.8c0.2,0,0.4,0,0.6,0c0.6,0.1,1.1,0.3,1.5,0.7
	c0.5,0.5,0.8,1.2,0.8,2C343.7,139.4,343.4,140.3,342.6,141.1z M339.3,159.8c-0.7,0.2-1.5,0.3-2.4,0.3c-1.7,0-3.1-0.6-4.3-1.8
	c-1.2-1.2-1.8-2.6-1.8-4.3c0-1.2,0.3-2.2,1-3.1c0.3-0.4,0.6-0.7,1-1.1c0.6-0.5,1.2-0.9,2-1.3c0.1,0.2,0.2,0.3,0.3,0.5
	c1,2,2,3.8,3,5.4c1.1,1.8,2.1,3.2,3.1,4.4C340.8,159.2,340.1,159.6,339.3,159.8z"/>
<g>
	<path fill="#006838" d="M141.5,151c0,1.7-0.2,3-0.6,3.9c-0.4,0.9-1.3,1.7-2.7,2.5c-0.6,0.3-0.9,0.6-1.1,0.9
		c-0.2,0.3-0.3,0.7-0.3,1.1v2.8h19.7v-2.8c0-0.5-0.1-0.8-0.3-1.2c-0.2-0.3-0.5-0.6-1.1-0.9c-1.4-0.8-2.3-1.6-2.6-2.5
		c-0.3-0.8-0.5-2.1-0.5-3.9v-31.9c0-1.9,0.1-3.2,0.4-4c0.3-0.8,1-1.6,2.2-2.4c0.4-0.3,0.7-0.6,0.8-0.8c0.1-0.3,0.2-0.7,0.2-1.2V108
		h-18.1l-13.2,36.5L111.6,108H93.5v2.8c0,0.5,0.1,0.9,0.2,1.2c0.1,0.3,0.4,0.6,0.8,0.8c1.2,0.9,1.9,1.7,2.3,2.5
		c0.3,0.8,0.5,2.1,0.5,3.9V151c0,1.7-0.2,3-0.6,3.9c-0.4,0.9-1.3,1.7-2.7,2.5c-0.6,0.3-0.9,0.6-1.1,0.9c-0.2,0.3-0.3,0.7-0.3,1.1
		v2.8h15.8v-2.8c0-0.5-0.1-0.8-0.3-1.1c-0.2-0.3-0.5-0.6-1.1-0.9c-1.4-0.8-2.3-1.6-2.6-2.5c-0.3-0.8-0.5-2.1-0.5-3.9v-34.2
		l16.5,45.4h4.2l16.8-45.4V151z"/>
	<path fill="#006838" d="M177.2,130.9v3.1c0,0.7,0.5,1.3,1.6,2c1.1,0.7,1.6,1.5,1.6,2.6c0,0.2,0,0.5-0.1,0.8
		c-0.1,0.3-0.2,0.6-0.3,0.9l-4.9,13.1l-4.5-13.3c-0.1-0.3-0.2-0.6-0.2-1c-0.1-0.3-0.1-0.7-0.1-1.1c0-0.9,0.4-1.6,1.3-2.2
		c0.9-0.6,1.3-1.2,1.3-1.8v-3.1h-17.6v3.1c0,0.3,0.1,0.5,0.2,0.8c0.1,0.3,0.3,0.5,0.6,0.7c1.4,0.9,2.4,1.7,3,2.3
		c0.5,0.7,1.1,1.9,1.8,3.7l9,24.6c-0.2,0.5-0.3,0.9-0.5,1.3c-0.7,1.8-1.3,3.2-1.9,4.1c-0.7,1-1.3,1.5-2,1.6c-0.1,0-0.1,0-0.2,0
		c-0.2,0-0.9-0.3-2-0.9c-1.1-0.6-2.2-0.9-3.1-0.9c-1.2,0-2.2,0.4-2.9,1.2c-0.7,0.8-1.1,1.9-1.1,3.2c0,1.7,0.5,2.9,1.6,3.9
		c1.1,0.9,2.5,1.4,4.5,1.4c2.5,0,4.7-0.8,6.6-2.4c0.3-0.2,0.6-0.5,0.9-0.8c2.1-2.1,4.1-5.5,6-10.2l0-0.1l9.9-25.7l0.1-0.4
		c1.1-2.8,2.3-4.6,3.5-5.3l0.1,0c1-0.6,1.5-1.3,1.5-2v-3.1H177.2z"/>
</g>
</svg>
